%TF.GenerationSoftware,KiCad,Pcbnew,7.0.2*%
%TF.CreationDate,2024-02-29T19:16:00+01:00*%
%TF.ProjectId,carte actionneur,63617274-6520-4616-9374-696f6e6e6575,rev?*%
%TF.SameCoordinates,Original*%
%TF.FileFunction,Legend,Bot*%
%TF.FilePolarity,Positive*%
%FSLAX46Y46*%
G04 Gerber Fmt 4.6, Leading zero omitted, Abs format (unit mm)*
G04 Created by KiCad (PCBNEW 7.0.2) date 2024-02-29 19:16:00*
%MOMM*%
%LPD*%
G01*
G04 APERTURE LIST*
G04 Aperture macros list*
%AMRoundRect*
0 Rectangle with rounded corners*
0 $1 Rounding radius*
0 $2 $3 $4 $5 $6 $7 $8 $9 X,Y pos of 4 corners*
0 Add a 4 corners polygon primitive as box body*
4,1,4,$2,$3,$4,$5,$6,$7,$8,$9,$2,$3,0*
0 Add four circle primitives for the rounded corners*
1,1,$1+$1,$2,$3*
1,1,$1+$1,$4,$5*
1,1,$1+$1,$6,$7*
1,1,$1+$1,$8,$9*
0 Add four rect primitives between the rounded corners*
20,1,$1+$1,$2,$3,$4,$5,0*
20,1,$1+$1,$4,$5,$6,$7,0*
20,1,$1+$1,$6,$7,$8,$9,0*
20,1,$1+$1,$8,$9,$2,$3,0*%
%AMFreePoly0*
4,1,6,1.000000,0.000000,0.500000,-0.750000,-0.500000,-0.750000,-0.500000,0.750000,0.500000,0.750000,1.000000,0.000000,1.000000,0.000000,$1*%
%AMFreePoly1*
4,1,6,0.500000,-0.750000,-0.650000,-0.750000,-0.150000,0.000000,-0.650000,0.750000,0.500000,0.750000,0.500000,-0.750000,0.500000,-0.750000,$1*%
G04 Aperture macros list end*
%ADD10C,0.150000*%
%ADD11C,0.120000*%
%ADD12C,0.127000*%
%ADD13C,2.550000*%
%ADD14R,2.550000X2.550000*%
%ADD15R,1.700000X1.700000*%
%ADD16O,1.700000X1.700000*%
%ADD17RoundRect,0.250000X-0.750000X0.600000X-0.750000X-0.600000X0.750000X-0.600000X0.750000X0.600000X0*%
%ADD18O,2.000000X1.700000*%
%ADD19C,0.800000*%
%ADD20C,6.400000*%
%ADD21C,1.600000*%
%ADD22R,1.600000X1.600000*%
%ADD23RoundRect,0.250000X-0.725000X0.600000X-0.725000X-0.600000X0.725000X-0.600000X0.725000X0.600000X0*%
%ADD24O,1.950000X1.700000*%
%ADD25O,1.600000X1.600000*%
%ADD26C,2.540000*%
%ADD27R,2.540000X2.540000*%
%ADD28RoundRect,0.225000X0.375000X-0.225000X0.375000X0.225000X-0.375000X0.225000X-0.375000X-0.225000X0*%
%ADD29R,0.802000X1.505000*%
%ADD30R,3.502000X2.613000*%
%ADD31RoundRect,0.250000X-0.475000X0.250000X-0.475000X-0.250000X0.475000X-0.250000X0.475000X0.250000X0*%
%ADD32RoundRect,0.250000X0.475000X-0.250000X0.475000X0.250000X-0.475000X0.250000X-0.475000X-0.250000X0*%
%ADD33FreePoly0,90.000000*%
%ADD34FreePoly1,90.000000*%
%ADD35RoundRect,0.250000X0.850000X0.350000X-0.850000X0.350000X-0.850000X-0.350000X0.850000X-0.350000X0*%
%ADD36RoundRect,0.249997X2.950003X2.650003X-2.950003X2.650003X-2.950003X-2.650003X2.950003X-2.650003X0*%
%ADD37FreePoly0,270.000000*%
%ADD38FreePoly1,270.000000*%
%ADD39RoundRect,0.250000X-0.450000X0.350000X-0.450000X-0.350000X0.450000X-0.350000X0.450000X0.350000X0*%
%ADD40RoundRect,0.250000X0.450000X-0.262500X0.450000X0.262500X-0.450000X0.262500X-0.450000X-0.262500X0*%
%ADD41FreePoly0,0.000000*%
%ADD42FreePoly1,0.000000*%
%ADD43RoundRect,0.250000X-0.450000X0.262500X-0.450000X-0.262500X0.450000X-0.262500X0.450000X0.262500X0*%
%ADD44RoundRect,0.225000X-0.225000X-0.375000X0.225000X-0.375000X0.225000X0.375000X-0.225000X0.375000X0*%
%ADD45C,1.880400*%
G04 APERTURE END LIST*
D10*
%TO.C,D4*%
X112062619Y-69261905D02*
X111062619Y-69261905D01*
X111062619Y-69261905D02*
X111062619Y-69500000D01*
X111062619Y-69500000D02*
X111110238Y-69642857D01*
X111110238Y-69642857D02*
X111205476Y-69738095D01*
X111205476Y-69738095D02*
X111300714Y-69785714D01*
X111300714Y-69785714D02*
X111491190Y-69833333D01*
X111491190Y-69833333D02*
X111634047Y-69833333D01*
X111634047Y-69833333D02*
X111824523Y-69785714D01*
X111824523Y-69785714D02*
X111919761Y-69738095D01*
X111919761Y-69738095D02*
X112015000Y-69642857D01*
X112015000Y-69642857D02*
X112062619Y-69500000D01*
X112062619Y-69500000D02*
X112062619Y-69261905D01*
X111395952Y-70690476D02*
X112062619Y-70690476D01*
X111015000Y-70452381D02*
X111729285Y-70214286D01*
X111729285Y-70214286D02*
X111729285Y-70833333D01*
%TO.C,U7*%
X133257619Y-79985595D02*
X134067142Y-79985595D01*
X134067142Y-79985595D02*
X134162380Y-80033214D01*
X134162380Y-80033214D02*
X134210000Y-80080833D01*
X134210000Y-80080833D02*
X134257619Y-80176071D01*
X134257619Y-80176071D02*
X134257619Y-80366547D01*
X134257619Y-80366547D02*
X134210000Y-80461785D01*
X134210000Y-80461785D02*
X134162380Y-80509404D01*
X134162380Y-80509404D02*
X134067142Y-80557023D01*
X134067142Y-80557023D02*
X133257619Y-80557023D01*
X133257619Y-80937976D02*
X133257619Y-81604642D01*
X133257619Y-81604642D02*
X134257619Y-81176071D01*
%TO.C,C3*%
X127367380Y-86433333D02*
X127415000Y-86385714D01*
X127415000Y-86385714D02*
X127462619Y-86242857D01*
X127462619Y-86242857D02*
X127462619Y-86147619D01*
X127462619Y-86147619D02*
X127415000Y-86004762D01*
X127415000Y-86004762D02*
X127319761Y-85909524D01*
X127319761Y-85909524D02*
X127224523Y-85861905D01*
X127224523Y-85861905D02*
X127034047Y-85814286D01*
X127034047Y-85814286D02*
X126891190Y-85814286D01*
X126891190Y-85814286D02*
X126700714Y-85861905D01*
X126700714Y-85861905D02*
X126605476Y-85909524D01*
X126605476Y-85909524D02*
X126510238Y-86004762D01*
X126510238Y-86004762D02*
X126462619Y-86147619D01*
X126462619Y-86147619D02*
X126462619Y-86242857D01*
X126462619Y-86242857D02*
X126510238Y-86385714D01*
X126510238Y-86385714D02*
X126557857Y-86433333D01*
X126462619Y-86766667D02*
X126462619Y-87385714D01*
X126462619Y-87385714D02*
X126843571Y-87052381D01*
X126843571Y-87052381D02*
X126843571Y-87195238D01*
X126843571Y-87195238D02*
X126891190Y-87290476D01*
X126891190Y-87290476D02*
X126938809Y-87338095D01*
X126938809Y-87338095D02*
X127034047Y-87385714D01*
X127034047Y-87385714D02*
X127272142Y-87385714D01*
X127272142Y-87385714D02*
X127367380Y-87338095D01*
X127367380Y-87338095D02*
X127415000Y-87290476D01*
X127415000Y-87290476D02*
X127462619Y-87195238D01*
X127462619Y-87195238D02*
X127462619Y-86909524D01*
X127462619Y-86909524D02*
X127415000Y-86814286D01*
X127415000Y-86814286D02*
X127367380Y-86766667D01*
%TO.C,C5*%
X155297380Y-83383333D02*
X155345000Y-83335714D01*
X155345000Y-83335714D02*
X155392619Y-83192857D01*
X155392619Y-83192857D02*
X155392619Y-83097619D01*
X155392619Y-83097619D02*
X155345000Y-82954762D01*
X155345000Y-82954762D02*
X155249761Y-82859524D01*
X155249761Y-82859524D02*
X155154523Y-82811905D01*
X155154523Y-82811905D02*
X154964047Y-82764286D01*
X154964047Y-82764286D02*
X154821190Y-82764286D01*
X154821190Y-82764286D02*
X154630714Y-82811905D01*
X154630714Y-82811905D02*
X154535476Y-82859524D01*
X154535476Y-82859524D02*
X154440238Y-82954762D01*
X154440238Y-82954762D02*
X154392619Y-83097619D01*
X154392619Y-83097619D02*
X154392619Y-83192857D01*
X154392619Y-83192857D02*
X154440238Y-83335714D01*
X154440238Y-83335714D02*
X154487857Y-83383333D01*
X154392619Y-84288095D02*
X154392619Y-83811905D01*
X154392619Y-83811905D02*
X154868809Y-83764286D01*
X154868809Y-83764286D02*
X154821190Y-83811905D01*
X154821190Y-83811905D02*
X154773571Y-83907143D01*
X154773571Y-83907143D02*
X154773571Y-84145238D01*
X154773571Y-84145238D02*
X154821190Y-84240476D01*
X154821190Y-84240476D02*
X154868809Y-84288095D01*
X154868809Y-84288095D02*
X154964047Y-84335714D01*
X154964047Y-84335714D02*
X155202142Y-84335714D01*
X155202142Y-84335714D02*
X155297380Y-84288095D01*
X155297380Y-84288095D02*
X155345000Y-84240476D01*
X155345000Y-84240476D02*
X155392619Y-84145238D01*
X155392619Y-84145238D02*
X155392619Y-83907143D01*
X155392619Y-83907143D02*
X155345000Y-83811905D01*
X155345000Y-83811905D02*
X155297380Y-83764286D01*
%TO.C,JP24*%
X143862619Y-76290476D02*
X144576904Y-76290476D01*
X144576904Y-76290476D02*
X144719761Y-76242857D01*
X144719761Y-76242857D02*
X144815000Y-76147619D01*
X144815000Y-76147619D02*
X144862619Y-76004762D01*
X144862619Y-76004762D02*
X144862619Y-75909524D01*
X144862619Y-76766667D02*
X143862619Y-76766667D01*
X143862619Y-76766667D02*
X143862619Y-77147619D01*
X143862619Y-77147619D02*
X143910238Y-77242857D01*
X143910238Y-77242857D02*
X143957857Y-77290476D01*
X143957857Y-77290476D02*
X144053095Y-77338095D01*
X144053095Y-77338095D02*
X144195952Y-77338095D01*
X144195952Y-77338095D02*
X144291190Y-77290476D01*
X144291190Y-77290476D02*
X144338809Y-77242857D01*
X144338809Y-77242857D02*
X144386428Y-77147619D01*
X144386428Y-77147619D02*
X144386428Y-76766667D01*
X143957857Y-77719048D02*
X143910238Y-77766667D01*
X143910238Y-77766667D02*
X143862619Y-77861905D01*
X143862619Y-77861905D02*
X143862619Y-78100000D01*
X143862619Y-78100000D02*
X143910238Y-78195238D01*
X143910238Y-78195238D02*
X143957857Y-78242857D01*
X143957857Y-78242857D02*
X144053095Y-78290476D01*
X144053095Y-78290476D02*
X144148333Y-78290476D01*
X144148333Y-78290476D02*
X144291190Y-78242857D01*
X144291190Y-78242857D02*
X144862619Y-77671429D01*
X144862619Y-77671429D02*
X144862619Y-78290476D01*
X144195952Y-79147619D02*
X144862619Y-79147619D01*
X143815000Y-78909524D02*
X144529285Y-78671429D01*
X144529285Y-78671429D02*
X144529285Y-79290476D01*
%TO.C,JP22*%
X141062619Y-76290476D02*
X141776904Y-76290476D01*
X141776904Y-76290476D02*
X141919761Y-76242857D01*
X141919761Y-76242857D02*
X142015000Y-76147619D01*
X142015000Y-76147619D02*
X142062619Y-76004762D01*
X142062619Y-76004762D02*
X142062619Y-75909524D01*
X142062619Y-76766667D02*
X141062619Y-76766667D01*
X141062619Y-76766667D02*
X141062619Y-77147619D01*
X141062619Y-77147619D02*
X141110238Y-77242857D01*
X141110238Y-77242857D02*
X141157857Y-77290476D01*
X141157857Y-77290476D02*
X141253095Y-77338095D01*
X141253095Y-77338095D02*
X141395952Y-77338095D01*
X141395952Y-77338095D02*
X141491190Y-77290476D01*
X141491190Y-77290476D02*
X141538809Y-77242857D01*
X141538809Y-77242857D02*
X141586428Y-77147619D01*
X141586428Y-77147619D02*
X141586428Y-76766667D01*
X141157857Y-77719048D02*
X141110238Y-77766667D01*
X141110238Y-77766667D02*
X141062619Y-77861905D01*
X141062619Y-77861905D02*
X141062619Y-78100000D01*
X141062619Y-78100000D02*
X141110238Y-78195238D01*
X141110238Y-78195238D02*
X141157857Y-78242857D01*
X141157857Y-78242857D02*
X141253095Y-78290476D01*
X141253095Y-78290476D02*
X141348333Y-78290476D01*
X141348333Y-78290476D02*
X141491190Y-78242857D01*
X141491190Y-78242857D02*
X142062619Y-77671429D01*
X142062619Y-77671429D02*
X142062619Y-78290476D01*
X141157857Y-78671429D02*
X141110238Y-78719048D01*
X141110238Y-78719048D02*
X141062619Y-78814286D01*
X141062619Y-78814286D02*
X141062619Y-79052381D01*
X141062619Y-79052381D02*
X141110238Y-79147619D01*
X141110238Y-79147619D02*
X141157857Y-79195238D01*
X141157857Y-79195238D02*
X141253095Y-79242857D01*
X141253095Y-79242857D02*
X141348333Y-79242857D01*
X141348333Y-79242857D02*
X141491190Y-79195238D01*
X141491190Y-79195238D02*
X142062619Y-78623810D01*
X142062619Y-78623810D02*
X142062619Y-79242857D01*
%TO.C,Q3*%
X119895238Y-70157857D02*
X119990476Y-70110238D01*
X119990476Y-70110238D02*
X120085714Y-70015000D01*
X120085714Y-70015000D02*
X120228571Y-69872142D01*
X120228571Y-69872142D02*
X120323809Y-69824523D01*
X120323809Y-69824523D02*
X120419047Y-69824523D01*
X120371428Y-70062619D02*
X120466666Y-70015000D01*
X120466666Y-70015000D02*
X120561904Y-69919761D01*
X120561904Y-69919761D02*
X120609523Y-69729285D01*
X120609523Y-69729285D02*
X120609523Y-69395952D01*
X120609523Y-69395952D02*
X120561904Y-69205476D01*
X120561904Y-69205476D02*
X120466666Y-69110238D01*
X120466666Y-69110238D02*
X120371428Y-69062619D01*
X120371428Y-69062619D02*
X120180952Y-69062619D01*
X120180952Y-69062619D02*
X120085714Y-69110238D01*
X120085714Y-69110238D02*
X119990476Y-69205476D01*
X119990476Y-69205476D02*
X119942857Y-69395952D01*
X119942857Y-69395952D02*
X119942857Y-69729285D01*
X119942857Y-69729285D02*
X119990476Y-69919761D01*
X119990476Y-69919761D02*
X120085714Y-70015000D01*
X120085714Y-70015000D02*
X120180952Y-70062619D01*
X120180952Y-70062619D02*
X120371428Y-70062619D01*
X119609523Y-69062619D02*
X118990476Y-69062619D01*
X118990476Y-69062619D02*
X119323809Y-69443571D01*
X119323809Y-69443571D02*
X119180952Y-69443571D01*
X119180952Y-69443571D02*
X119085714Y-69491190D01*
X119085714Y-69491190D02*
X119038095Y-69538809D01*
X119038095Y-69538809D02*
X118990476Y-69634047D01*
X118990476Y-69634047D02*
X118990476Y-69872142D01*
X118990476Y-69872142D02*
X119038095Y-69967380D01*
X119038095Y-69967380D02*
X119085714Y-70015000D01*
X119085714Y-70015000D02*
X119180952Y-70062619D01*
X119180952Y-70062619D02*
X119466666Y-70062619D01*
X119466666Y-70062619D02*
X119561904Y-70015000D01*
X119561904Y-70015000D02*
X119609523Y-69967380D01*
%TO.C,JP6*%
X151662619Y-98766666D02*
X152376904Y-98766666D01*
X152376904Y-98766666D02*
X152519761Y-98719047D01*
X152519761Y-98719047D02*
X152615000Y-98623809D01*
X152615000Y-98623809D02*
X152662619Y-98480952D01*
X152662619Y-98480952D02*
X152662619Y-98385714D01*
X152662619Y-99242857D02*
X151662619Y-99242857D01*
X151662619Y-99242857D02*
X151662619Y-99623809D01*
X151662619Y-99623809D02*
X151710238Y-99719047D01*
X151710238Y-99719047D02*
X151757857Y-99766666D01*
X151757857Y-99766666D02*
X151853095Y-99814285D01*
X151853095Y-99814285D02*
X151995952Y-99814285D01*
X151995952Y-99814285D02*
X152091190Y-99766666D01*
X152091190Y-99766666D02*
X152138809Y-99719047D01*
X152138809Y-99719047D02*
X152186428Y-99623809D01*
X152186428Y-99623809D02*
X152186428Y-99242857D01*
X151662619Y-100671428D02*
X151662619Y-100480952D01*
X151662619Y-100480952D02*
X151710238Y-100385714D01*
X151710238Y-100385714D02*
X151757857Y-100338095D01*
X151757857Y-100338095D02*
X151900714Y-100242857D01*
X151900714Y-100242857D02*
X152091190Y-100195238D01*
X152091190Y-100195238D02*
X152472142Y-100195238D01*
X152472142Y-100195238D02*
X152567380Y-100242857D01*
X152567380Y-100242857D02*
X152615000Y-100290476D01*
X152615000Y-100290476D02*
X152662619Y-100385714D01*
X152662619Y-100385714D02*
X152662619Y-100576190D01*
X152662619Y-100576190D02*
X152615000Y-100671428D01*
X152615000Y-100671428D02*
X152567380Y-100719047D01*
X152567380Y-100719047D02*
X152472142Y-100766666D01*
X152472142Y-100766666D02*
X152234047Y-100766666D01*
X152234047Y-100766666D02*
X152138809Y-100719047D01*
X152138809Y-100719047D02*
X152091190Y-100671428D01*
X152091190Y-100671428D02*
X152043571Y-100576190D01*
X152043571Y-100576190D02*
X152043571Y-100385714D01*
X152043571Y-100385714D02*
X152091190Y-100290476D01*
X152091190Y-100290476D02*
X152138809Y-100242857D01*
X152138809Y-100242857D02*
X152234047Y-100195238D01*
%TO.C,C6*%
X137367380Y-74433333D02*
X137415000Y-74385714D01*
X137415000Y-74385714D02*
X137462619Y-74242857D01*
X137462619Y-74242857D02*
X137462619Y-74147619D01*
X137462619Y-74147619D02*
X137415000Y-74004762D01*
X137415000Y-74004762D02*
X137319761Y-73909524D01*
X137319761Y-73909524D02*
X137224523Y-73861905D01*
X137224523Y-73861905D02*
X137034047Y-73814286D01*
X137034047Y-73814286D02*
X136891190Y-73814286D01*
X136891190Y-73814286D02*
X136700714Y-73861905D01*
X136700714Y-73861905D02*
X136605476Y-73909524D01*
X136605476Y-73909524D02*
X136510238Y-74004762D01*
X136510238Y-74004762D02*
X136462619Y-74147619D01*
X136462619Y-74147619D02*
X136462619Y-74242857D01*
X136462619Y-74242857D02*
X136510238Y-74385714D01*
X136510238Y-74385714D02*
X136557857Y-74433333D01*
X136462619Y-75290476D02*
X136462619Y-75100000D01*
X136462619Y-75100000D02*
X136510238Y-75004762D01*
X136510238Y-75004762D02*
X136557857Y-74957143D01*
X136557857Y-74957143D02*
X136700714Y-74861905D01*
X136700714Y-74861905D02*
X136891190Y-74814286D01*
X136891190Y-74814286D02*
X137272142Y-74814286D01*
X137272142Y-74814286D02*
X137367380Y-74861905D01*
X137367380Y-74861905D02*
X137415000Y-74909524D01*
X137415000Y-74909524D02*
X137462619Y-75004762D01*
X137462619Y-75004762D02*
X137462619Y-75195238D01*
X137462619Y-75195238D02*
X137415000Y-75290476D01*
X137415000Y-75290476D02*
X137367380Y-75338095D01*
X137367380Y-75338095D02*
X137272142Y-75385714D01*
X137272142Y-75385714D02*
X137034047Y-75385714D01*
X137034047Y-75385714D02*
X136938809Y-75338095D01*
X136938809Y-75338095D02*
X136891190Y-75290476D01*
X136891190Y-75290476D02*
X136843571Y-75195238D01*
X136843571Y-75195238D02*
X136843571Y-75004762D01*
X136843571Y-75004762D02*
X136891190Y-74909524D01*
X136891190Y-74909524D02*
X136938809Y-74861905D01*
X136938809Y-74861905D02*
X137034047Y-74814286D01*
%TO.C,R1*%
X113812619Y-148033333D02*
X113336428Y-147700000D01*
X113812619Y-147461905D02*
X112812619Y-147461905D01*
X112812619Y-147461905D02*
X112812619Y-147842857D01*
X112812619Y-147842857D02*
X112860238Y-147938095D01*
X112860238Y-147938095D02*
X112907857Y-147985714D01*
X112907857Y-147985714D02*
X113003095Y-148033333D01*
X113003095Y-148033333D02*
X113145952Y-148033333D01*
X113145952Y-148033333D02*
X113241190Y-147985714D01*
X113241190Y-147985714D02*
X113288809Y-147938095D01*
X113288809Y-147938095D02*
X113336428Y-147842857D01*
X113336428Y-147842857D02*
X113336428Y-147461905D01*
X113812619Y-148985714D02*
X113812619Y-148414286D01*
X113812619Y-148700000D02*
X112812619Y-148700000D01*
X112812619Y-148700000D02*
X112955476Y-148604762D01*
X112955476Y-148604762D02*
X113050714Y-148509524D01*
X113050714Y-148509524D02*
X113098333Y-148414286D01*
%TO.C,C4*%
X119767380Y-82033333D02*
X119815000Y-81985714D01*
X119815000Y-81985714D02*
X119862619Y-81842857D01*
X119862619Y-81842857D02*
X119862619Y-81747619D01*
X119862619Y-81747619D02*
X119815000Y-81604762D01*
X119815000Y-81604762D02*
X119719761Y-81509524D01*
X119719761Y-81509524D02*
X119624523Y-81461905D01*
X119624523Y-81461905D02*
X119434047Y-81414286D01*
X119434047Y-81414286D02*
X119291190Y-81414286D01*
X119291190Y-81414286D02*
X119100714Y-81461905D01*
X119100714Y-81461905D02*
X119005476Y-81509524D01*
X119005476Y-81509524D02*
X118910238Y-81604762D01*
X118910238Y-81604762D02*
X118862619Y-81747619D01*
X118862619Y-81747619D02*
X118862619Y-81842857D01*
X118862619Y-81842857D02*
X118910238Y-81985714D01*
X118910238Y-81985714D02*
X118957857Y-82033333D01*
X119195952Y-82890476D02*
X119862619Y-82890476D01*
X118815000Y-82652381D02*
X119529285Y-82414286D01*
X119529285Y-82414286D02*
X119529285Y-83033333D01*
%TO.C,R5*%
X126612619Y-94833333D02*
X126136428Y-94500000D01*
X126612619Y-94261905D02*
X125612619Y-94261905D01*
X125612619Y-94261905D02*
X125612619Y-94642857D01*
X125612619Y-94642857D02*
X125660238Y-94738095D01*
X125660238Y-94738095D02*
X125707857Y-94785714D01*
X125707857Y-94785714D02*
X125803095Y-94833333D01*
X125803095Y-94833333D02*
X125945952Y-94833333D01*
X125945952Y-94833333D02*
X126041190Y-94785714D01*
X126041190Y-94785714D02*
X126088809Y-94738095D01*
X126088809Y-94738095D02*
X126136428Y-94642857D01*
X126136428Y-94642857D02*
X126136428Y-94261905D01*
X125612619Y-95738095D02*
X125612619Y-95261905D01*
X125612619Y-95261905D02*
X126088809Y-95214286D01*
X126088809Y-95214286D02*
X126041190Y-95261905D01*
X126041190Y-95261905D02*
X125993571Y-95357143D01*
X125993571Y-95357143D02*
X125993571Y-95595238D01*
X125993571Y-95595238D02*
X126041190Y-95690476D01*
X126041190Y-95690476D02*
X126088809Y-95738095D01*
X126088809Y-95738095D02*
X126184047Y-95785714D01*
X126184047Y-95785714D02*
X126422142Y-95785714D01*
X126422142Y-95785714D02*
X126517380Y-95738095D01*
X126517380Y-95738095D02*
X126565000Y-95690476D01*
X126565000Y-95690476D02*
X126612619Y-95595238D01*
X126612619Y-95595238D02*
X126612619Y-95357143D01*
X126612619Y-95357143D02*
X126565000Y-95261905D01*
X126565000Y-95261905D02*
X126517380Y-95214286D01*
%TO.C,JP15*%
X139309523Y-67462619D02*
X139309523Y-68176904D01*
X139309523Y-68176904D02*
X139357142Y-68319761D01*
X139357142Y-68319761D02*
X139452380Y-68415000D01*
X139452380Y-68415000D02*
X139595237Y-68462619D01*
X139595237Y-68462619D02*
X139690475Y-68462619D01*
X138833332Y-68462619D02*
X138833332Y-67462619D01*
X138833332Y-67462619D02*
X138452380Y-67462619D01*
X138452380Y-67462619D02*
X138357142Y-67510238D01*
X138357142Y-67510238D02*
X138309523Y-67557857D01*
X138309523Y-67557857D02*
X138261904Y-67653095D01*
X138261904Y-67653095D02*
X138261904Y-67795952D01*
X138261904Y-67795952D02*
X138309523Y-67891190D01*
X138309523Y-67891190D02*
X138357142Y-67938809D01*
X138357142Y-67938809D02*
X138452380Y-67986428D01*
X138452380Y-67986428D02*
X138833332Y-67986428D01*
X137309523Y-68462619D02*
X137880951Y-68462619D01*
X137595237Y-68462619D02*
X137595237Y-67462619D01*
X137595237Y-67462619D02*
X137690475Y-67605476D01*
X137690475Y-67605476D02*
X137785713Y-67700714D01*
X137785713Y-67700714D02*
X137880951Y-67748333D01*
X136404761Y-67462619D02*
X136880951Y-67462619D01*
X136880951Y-67462619D02*
X136928570Y-67938809D01*
X136928570Y-67938809D02*
X136880951Y-67891190D01*
X136880951Y-67891190D02*
X136785713Y-67843571D01*
X136785713Y-67843571D02*
X136547618Y-67843571D01*
X136547618Y-67843571D02*
X136452380Y-67891190D01*
X136452380Y-67891190D02*
X136404761Y-67938809D01*
X136404761Y-67938809D02*
X136357142Y-68034047D01*
X136357142Y-68034047D02*
X136357142Y-68272142D01*
X136357142Y-68272142D02*
X136404761Y-68367380D01*
X136404761Y-68367380D02*
X136452380Y-68415000D01*
X136452380Y-68415000D02*
X136547618Y-68462619D01*
X136547618Y-68462619D02*
X136785713Y-68462619D01*
X136785713Y-68462619D02*
X136880951Y-68415000D01*
X136880951Y-68415000D02*
X136928570Y-68367380D01*
%TO.C,R6*%
X158312619Y-78083333D02*
X157836428Y-77750000D01*
X158312619Y-77511905D02*
X157312619Y-77511905D01*
X157312619Y-77511905D02*
X157312619Y-77892857D01*
X157312619Y-77892857D02*
X157360238Y-77988095D01*
X157360238Y-77988095D02*
X157407857Y-78035714D01*
X157407857Y-78035714D02*
X157503095Y-78083333D01*
X157503095Y-78083333D02*
X157645952Y-78083333D01*
X157645952Y-78083333D02*
X157741190Y-78035714D01*
X157741190Y-78035714D02*
X157788809Y-77988095D01*
X157788809Y-77988095D02*
X157836428Y-77892857D01*
X157836428Y-77892857D02*
X157836428Y-77511905D01*
X157312619Y-78940476D02*
X157312619Y-78750000D01*
X157312619Y-78750000D02*
X157360238Y-78654762D01*
X157360238Y-78654762D02*
X157407857Y-78607143D01*
X157407857Y-78607143D02*
X157550714Y-78511905D01*
X157550714Y-78511905D02*
X157741190Y-78464286D01*
X157741190Y-78464286D02*
X158122142Y-78464286D01*
X158122142Y-78464286D02*
X158217380Y-78511905D01*
X158217380Y-78511905D02*
X158265000Y-78559524D01*
X158265000Y-78559524D02*
X158312619Y-78654762D01*
X158312619Y-78654762D02*
X158312619Y-78845238D01*
X158312619Y-78845238D02*
X158265000Y-78940476D01*
X158265000Y-78940476D02*
X158217380Y-78988095D01*
X158217380Y-78988095D02*
X158122142Y-79035714D01*
X158122142Y-79035714D02*
X157884047Y-79035714D01*
X157884047Y-79035714D02*
X157788809Y-78988095D01*
X157788809Y-78988095D02*
X157741190Y-78940476D01*
X157741190Y-78940476D02*
X157693571Y-78845238D01*
X157693571Y-78845238D02*
X157693571Y-78654762D01*
X157693571Y-78654762D02*
X157741190Y-78559524D01*
X157741190Y-78559524D02*
X157788809Y-78511905D01*
X157788809Y-78511905D02*
X157884047Y-78464286D01*
%TO.C,JP13*%
X139309523Y-70862619D02*
X139309523Y-71576904D01*
X139309523Y-71576904D02*
X139357142Y-71719761D01*
X139357142Y-71719761D02*
X139452380Y-71815000D01*
X139452380Y-71815000D02*
X139595237Y-71862619D01*
X139595237Y-71862619D02*
X139690475Y-71862619D01*
X138833332Y-71862619D02*
X138833332Y-70862619D01*
X138833332Y-70862619D02*
X138452380Y-70862619D01*
X138452380Y-70862619D02*
X138357142Y-70910238D01*
X138357142Y-70910238D02*
X138309523Y-70957857D01*
X138309523Y-70957857D02*
X138261904Y-71053095D01*
X138261904Y-71053095D02*
X138261904Y-71195952D01*
X138261904Y-71195952D02*
X138309523Y-71291190D01*
X138309523Y-71291190D02*
X138357142Y-71338809D01*
X138357142Y-71338809D02*
X138452380Y-71386428D01*
X138452380Y-71386428D02*
X138833332Y-71386428D01*
X137309523Y-71862619D02*
X137880951Y-71862619D01*
X137595237Y-71862619D02*
X137595237Y-70862619D01*
X137595237Y-70862619D02*
X137690475Y-71005476D01*
X137690475Y-71005476D02*
X137785713Y-71100714D01*
X137785713Y-71100714D02*
X137880951Y-71148333D01*
X136976189Y-70862619D02*
X136357142Y-70862619D01*
X136357142Y-70862619D02*
X136690475Y-71243571D01*
X136690475Y-71243571D02*
X136547618Y-71243571D01*
X136547618Y-71243571D02*
X136452380Y-71291190D01*
X136452380Y-71291190D02*
X136404761Y-71338809D01*
X136404761Y-71338809D02*
X136357142Y-71434047D01*
X136357142Y-71434047D02*
X136357142Y-71672142D01*
X136357142Y-71672142D02*
X136404761Y-71767380D01*
X136404761Y-71767380D02*
X136452380Y-71815000D01*
X136452380Y-71815000D02*
X136547618Y-71862619D01*
X136547618Y-71862619D02*
X136833332Y-71862619D01*
X136833332Y-71862619D02*
X136928570Y-71815000D01*
X136928570Y-71815000D02*
X136976189Y-71767380D01*
%TO.C,JP23*%
X147062619Y-76290476D02*
X147776904Y-76290476D01*
X147776904Y-76290476D02*
X147919761Y-76242857D01*
X147919761Y-76242857D02*
X148015000Y-76147619D01*
X148015000Y-76147619D02*
X148062619Y-76004762D01*
X148062619Y-76004762D02*
X148062619Y-75909524D01*
X148062619Y-76766667D02*
X147062619Y-76766667D01*
X147062619Y-76766667D02*
X147062619Y-77147619D01*
X147062619Y-77147619D02*
X147110238Y-77242857D01*
X147110238Y-77242857D02*
X147157857Y-77290476D01*
X147157857Y-77290476D02*
X147253095Y-77338095D01*
X147253095Y-77338095D02*
X147395952Y-77338095D01*
X147395952Y-77338095D02*
X147491190Y-77290476D01*
X147491190Y-77290476D02*
X147538809Y-77242857D01*
X147538809Y-77242857D02*
X147586428Y-77147619D01*
X147586428Y-77147619D02*
X147586428Y-76766667D01*
X147157857Y-77719048D02*
X147110238Y-77766667D01*
X147110238Y-77766667D02*
X147062619Y-77861905D01*
X147062619Y-77861905D02*
X147062619Y-78100000D01*
X147062619Y-78100000D02*
X147110238Y-78195238D01*
X147110238Y-78195238D02*
X147157857Y-78242857D01*
X147157857Y-78242857D02*
X147253095Y-78290476D01*
X147253095Y-78290476D02*
X147348333Y-78290476D01*
X147348333Y-78290476D02*
X147491190Y-78242857D01*
X147491190Y-78242857D02*
X148062619Y-77671429D01*
X148062619Y-77671429D02*
X148062619Y-78290476D01*
X147062619Y-78623810D02*
X147062619Y-79242857D01*
X147062619Y-79242857D02*
X147443571Y-78909524D01*
X147443571Y-78909524D02*
X147443571Y-79052381D01*
X147443571Y-79052381D02*
X147491190Y-79147619D01*
X147491190Y-79147619D02*
X147538809Y-79195238D01*
X147538809Y-79195238D02*
X147634047Y-79242857D01*
X147634047Y-79242857D02*
X147872142Y-79242857D01*
X147872142Y-79242857D02*
X147967380Y-79195238D01*
X147967380Y-79195238D02*
X148015000Y-79147619D01*
X148015000Y-79147619D02*
X148062619Y-79052381D01*
X148062619Y-79052381D02*
X148062619Y-78766667D01*
X148062619Y-78766667D02*
X148015000Y-78671429D01*
X148015000Y-78671429D02*
X147967380Y-78623810D01*
%TO.C,JP14*%
X138909523Y-63662619D02*
X138909523Y-64376904D01*
X138909523Y-64376904D02*
X138957142Y-64519761D01*
X138957142Y-64519761D02*
X139052380Y-64615000D01*
X139052380Y-64615000D02*
X139195237Y-64662619D01*
X139195237Y-64662619D02*
X139290475Y-64662619D01*
X138433332Y-64662619D02*
X138433332Y-63662619D01*
X138433332Y-63662619D02*
X138052380Y-63662619D01*
X138052380Y-63662619D02*
X137957142Y-63710238D01*
X137957142Y-63710238D02*
X137909523Y-63757857D01*
X137909523Y-63757857D02*
X137861904Y-63853095D01*
X137861904Y-63853095D02*
X137861904Y-63995952D01*
X137861904Y-63995952D02*
X137909523Y-64091190D01*
X137909523Y-64091190D02*
X137957142Y-64138809D01*
X137957142Y-64138809D02*
X138052380Y-64186428D01*
X138052380Y-64186428D02*
X138433332Y-64186428D01*
X136909523Y-64662619D02*
X137480951Y-64662619D01*
X137195237Y-64662619D02*
X137195237Y-63662619D01*
X137195237Y-63662619D02*
X137290475Y-63805476D01*
X137290475Y-63805476D02*
X137385713Y-63900714D01*
X137385713Y-63900714D02*
X137480951Y-63948333D01*
X136052380Y-63995952D02*
X136052380Y-64662619D01*
X136290475Y-63615000D02*
X136528570Y-64329285D01*
X136528570Y-64329285D02*
X135909523Y-64329285D01*
%TO.C,D1*%
X111238094Y-162962619D02*
X111238094Y-161962619D01*
X111238094Y-161962619D02*
X110999999Y-161962619D01*
X110999999Y-161962619D02*
X110857142Y-162010238D01*
X110857142Y-162010238D02*
X110761904Y-162105476D01*
X110761904Y-162105476D02*
X110714285Y-162200714D01*
X110714285Y-162200714D02*
X110666666Y-162391190D01*
X110666666Y-162391190D02*
X110666666Y-162534047D01*
X110666666Y-162534047D02*
X110714285Y-162724523D01*
X110714285Y-162724523D02*
X110761904Y-162819761D01*
X110761904Y-162819761D02*
X110857142Y-162915000D01*
X110857142Y-162915000D02*
X110999999Y-162962619D01*
X110999999Y-162962619D02*
X111238094Y-162962619D01*
X109714285Y-162962619D02*
X110285713Y-162962619D01*
X109999999Y-162962619D02*
X109999999Y-161962619D01*
X109999999Y-161962619D02*
X110095237Y-162105476D01*
X110095237Y-162105476D02*
X110190475Y-162200714D01*
X110190475Y-162200714D02*
X110285713Y-162248333D01*
%TO.C,JP19*%
X113862619Y-82690476D02*
X114576904Y-82690476D01*
X114576904Y-82690476D02*
X114719761Y-82642857D01*
X114719761Y-82642857D02*
X114815000Y-82547619D01*
X114815000Y-82547619D02*
X114862619Y-82404762D01*
X114862619Y-82404762D02*
X114862619Y-82309524D01*
X114862619Y-83166667D02*
X113862619Y-83166667D01*
X113862619Y-83166667D02*
X113862619Y-83547619D01*
X113862619Y-83547619D02*
X113910238Y-83642857D01*
X113910238Y-83642857D02*
X113957857Y-83690476D01*
X113957857Y-83690476D02*
X114053095Y-83738095D01*
X114053095Y-83738095D02*
X114195952Y-83738095D01*
X114195952Y-83738095D02*
X114291190Y-83690476D01*
X114291190Y-83690476D02*
X114338809Y-83642857D01*
X114338809Y-83642857D02*
X114386428Y-83547619D01*
X114386428Y-83547619D02*
X114386428Y-83166667D01*
X114862619Y-84690476D02*
X114862619Y-84119048D01*
X114862619Y-84404762D02*
X113862619Y-84404762D01*
X113862619Y-84404762D02*
X114005476Y-84309524D01*
X114005476Y-84309524D02*
X114100714Y-84214286D01*
X114100714Y-84214286D02*
X114148333Y-84119048D01*
X114862619Y-85166667D02*
X114862619Y-85357143D01*
X114862619Y-85357143D02*
X114815000Y-85452381D01*
X114815000Y-85452381D02*
X114767380Y-85500000D01*
X114767380Y-85500000D02*
X114624523Y-85595238D01*
X114624523Y-85595238D02*
X114434047Y-85642857D01*
X114434047Y-85642857D02*
X114053095Y-85642857D01*
X114053095Y-85642857D02*
X113957857Y-85595238D01*
X113957857Y-85595238D02*
X113910238Y-85547619D01*
X113910238Y-85547619D02*
X113862619Y-85452381D01*
X113862619Y-85452381D02*
X113862619Y-85261905D01*
X113862619Y-85261905D02*
X113910238Y-85166667D01*
X113910238Y-85166667D02*
X113957857Y-85119048D01*
X113957857Y-85119048D02*
X114053095Y-85071429D01*
X114053095Y-85071429D02*
X114291190Y-85071429D01*
X114291190Y-85071429D02*
X114386428Y-85119048D01*
X114386428Y-85119048D02*
X114434047Y-85166667D01*
X114434047Y-85166667D02*
X114481666Y-85261905D01*
X114481666Y-85261905D02*
X114481666Y-85452381D01*
X114481666Y-85452381D02*
X114434047Y-85547619D01*
X114434047Y-85547619D02*
X114386428Y-85595238D01*
X114386428Y-85595238D02*
X114291190Y-85642857D01*
%TO.C,Q1*%
X107680238Y-151532857D02*
X107775476Y-151485238D01*
X107775476Y-151485238D02*
X107870714Y-151390000D01*
X107870714Y-151390000D02*
X108013571Y-151247142D01*
X108013571Y-151247142D02*
X108108809Y-151199523D01*
X108108809Y-151199523D02*
X108204047Y-151199523D01*
X108156428Y-151437619D02*
X108251666Y-151390000D01*
X108251666Y-151390000D02*
X108346904Y-151294761D01*
X108346904Y-151294761D02*
X108394523Y-151104285D01*
X108394523Y-151104285D02*
X108394523Y-150770952D01*
X108394523Y-150770952D02*
X108346904Y-150580476D01*
X108346904Y-150580476D02*
X108251666Y-150485238D01*
X108251666Y-150485238D02*
X108156428Y-150437619D01*
X108156428Y-150437619D02*
X107965952Y-150437619D01*
X107965952Y-150437619D02*
X107870714Y-150485238D01*
X107870714Y-150485238D02*
X107775476Y-150580476D01*
X107775476Y-150580476D02*
X107727857Y-150770952D01*
X107727857Y-150770952D02*
X107727857Y-151104285D01*
X107727857Y-151104285D02*
X107775476Y-151294761D01*
X107775476Y-151294761D02*
X107870714Y-151390000D01*
X107870714Y-151390000D02*
X107965952Y-151437619D01*
X107965952Y-151437619D02*
X108156428Y-151437619D01*
X106775476Y-151437619D02*
X107346904Y-151437619D01*
X107061190Y-151437619D02*
X107061190Y-150437619D01*
X107061190Y-150437619D02*
X107156428Y-150580476D01*
X107156428Y-150580476D02*
X107251666Y-150675714D01*
X107251666Y-150675714D02*
X107346904Y-150723333D01*
%TO.C,R10*%
X126812619Y-63757142D02*
X126336428Y-63423809D01*
X126812619Y-63185714D02*
X125812619Y-63185714D01*
X125812619Y-63185714D02*
X125812619Y-63566666D01*
X125812619Y-63566666D02*
X125860238Y-63661904D01*
X125860238Y-63661904D02*
X125907857Y-63709523D01*
X125907857Y-63709523D02*
X126003095Y-63757142D01*
X126003095Y-63757142D02*
X126145952Y-63757142D01*
X126145952Y-63757142D02*
X126241190Y-63709523D01*
X126241190Y-63709523D02*
X126288809Y-63661904D01*
X126288809Y-63661904D02*
X126336428Y-63566666D01*
X126336428Y-63566666D02*
X126336428Y-63185714D01*
X126812619Y-64709523D02*
X126812619Y-64138095D01*
X126812619Y-64423809D02*
X125812619Y-64423809D01*
X125812619Y-64423809D02*
X125955476Y-64328571D01*
X125955476Y-64328571D02*
X126050714Y-64233333D01*
X126050714Y-64233333D02*
X126098333Y-64138095D01*
X125812619Y-65328571D02*
X125812619Y-65423809D01*
X125812619Y-65423809D02*
X125860238Y-65519047D01*
X125860238Y-65519047D02*
X125907857Y-65566666D01*
X125907857Y-65566666D02*
X126003095Y-65614285D01*
X126003095Y-65614285D02*
X126193571Y-65661904D01*
X126193571Y-65661904D02*
X126431666Y-65661904D01*
X126431666Y-65661904D02*
X126622142Y-65614285D01*
X126622142Y-65614285D02*
X126717380Y-65566666D01*
X126717380Y-65566666D02*
X126765000Y-65519047D01*
X126765000Y-65519047D02*
X126812619Y-65423809D01*
X126812619Y-65423809D02*
X126812619Y-65328571D01*
X126812619Y-65328571D02*
X126765000Y-65233333D01*
X126765000Y-65233333D02*
X126717380Y-65185714D01*
X126717380Y-65185714D02*
X126622142Y-65138095D01*
X126622142Y-65138095D02*
X126431666Y-65090476D01*
X126431666Y-65090476D02*
X126193571Y-65090476D01*
X126193571Y-65090476D02*
X126003095Y-65138095D01*
X126003095Y-65138095D02*
X125907857Y-65185714D01*
X125907857Y-65185714D02*
X125860238Y-65233333D01*
X125860238Y-65233333D02*
X125812619Y-65328571D01*
%TO.C,Q2*%
X120355238Y-49077857D02*
X120450476Y-49030238D01*
X120450476Y-49030238D02*
X120545714Y-48935000D01*
X120545714Y-48935000D02*
X120688571Y-48792142D01*
X120688571Y-48792142D02*
X120783809Y-48744523D01*
X120783809Y-48744523D02*
X120879047Y-48744523D01*
X120831428Y-48982619D02*
X120926666Y-48935000D01*
X120926666Y-48935000D02*
X121021904Y-48839761D01*
X121021904Y-48839761D02*
X121069523Y-48649285D01*
X121069523Y-48649285D02*
X121069523Y-48315952D01*
X121069523Y-48315952D02*
X121021904Y-48125476D01*
X121021904Y-48125476D02*
X120926666Y-48030238D01*
X120926666Y-48030238D02*
X120831428Y-47982619D01*
X120831428Y-47982619D02*
X120640952Y-47982619D01*
X120640952Y-47982619D02*
X120545714Y-48030238D01*
X120545714Y-48030238D02*
X120450476Y-48125476D01*
X120450476Y-48125476D02*
X120402857Y-48315952D01*
X120402857Y-48315952D02*
X120402857Y-48649285D01*
X120402857Y-48649285D02*
X120450476Y-48839761D01*
X120450476Y-48839761D02*
X120545714Y-48935000D01*
X120545714Y-48935000D02*
X120640952Y-48982619D01*
X120640952Y-48982619D02*
X120831428Y-48982619D01*
X120021904Y-48077857D02*
X119974285Y-48030238D01*
X119974285Y-48030238D02*
X119879047Y-47982619D01*
X119879047Y-47982619D02*
X119640952Y-47982619D01*
X119640952Y-47982619D02*
X119545714Y-48030238D01*
X119545714Y-48030238D02*
X119498095Y-48077857D01*
X119498095Y-48077857D02*
X119450476Y-48173095D01*
X119450476Y-48173095D02*
X119450476Y-48268333D01*
X119450476Y-48268333D02*
X119498095Y-48411190D01*
X119498095Y-48411190D02*
X120069523Y-48982619D01*
X120069523Y-48982619D02*
X119450476Y-48982619D01*
%TO.C,R9*%
X129462619Y-55633333D02*
X128986428Y-55300000D01*
X129462619Y-55061905D02*
X128462619Y-55061905D01*
X128462619Y-55061905D02*
X128462619Y-55442857D01*
X128462619Y-55442857D02*
X128510238Y-55538095D01*
X128510238Y-55538095D02*
X128557857Y-55585714D01*
X128557857Y-55585714D02*
X128653095Y-55633333D01*
X128653095Y-55633333D02*
X128795952Y-55633333D01*
X128795952Y-55633333D02*
X128891190Y-55585714D01*
X128891190Y-55585714D02*
X128938809Y-55538095D01*
X128938809Y-55538095D02*
X128986428Y-55442857D01*
X128986428Y-55442857D02*
X128986428Y-55061905D01*
X129462619Y-56109524D02*
X129462619Y-56300000D01*
X129462619Y-56300000D02*
X129415000Y-56395238D01*
X129415000Y-56395238D02*
X129367380Y-56442857D01*
X129367380Y-56442857D02*
X129224523Y-56538095D01*
X129224523Y-56538095D02*
X129034047Y-56585714D01*
X129034047Y-56585714D02*
X128653095Y-56585714D01*
X128653095Y-56585714D02*
X128557857Y-56538095D01*
X128557857Y-56538095D02*
X128510238Y-56490476D01*
X128510238Y-56490476D02*
X128462619Y-56395238D01*
X128462619Y-56395238D02*
X128462619Y-56204762D01*
X128462619Y-56204762D02*
X128510238Y-56109524D01*
X128510238Y-56109524D02*
X128557857Y-56061905D01*
X128557857Y-56061905D02*
X128653095Y-56014286D01*
X128653095Y-56014286D02*
X128891190Y-56014286D01*
X128891190Y-56014286D02*
X128986428Y-56061905D01*
X128986428Y-56061905D02*
X129034047Y-56109524D01*
X129034047Y-56109524D02*
X129081666Y-56204762D01*
X129081666Y-56204762D02*
X129081666Y-56395238D01*
X129081666Y-56395238D02*
X129034047Y-56490476D01*
X129034047Y-56490476D02*
X128986428Y-56538095D01*
X128986428Y-56538095D02*
X128891190Y-56585714D01*
%TO.C,JP4*%
X146262619Y-98766666D02*
X146976904Y-98766666D01*
X146976904Y-98766666D02*
X147119761Y-98719047D01*
X147119761Y-98719047D02*
X147215000Y-98623809D01*
X147215000Y-98623809D02*
X147262619Y-98480952D01*
X147262619Y-98480952D02*
X147262619Y-98385714D01*
X147262619Y-99242857D02*
X146262619Y-99242857D01*
X146262619Y-99242857D02*
X146262619Y-99623809D01*
X146262619Y-99623809D02*
X146310238Y-99719047D01*
X146310238Y-99719047D02*
X146357857Y-99766666D01*
X146357857Y-99766666D02*
X146453095Y-99814285D01*
X146453095Y-99814285D02*
X146595952Y-99814285D01*
X146595952Y-99814285D02*
X146691190Y-99766666D01*
X146691190Y-99766666D02*
X146738809Y-99719047D01*
X146738809Y-99719047D02*
X146786428Y-99623809D01*
X146786428Y-99623809D02*
X146786428Y-99242857D01*
X146595952Y-100671428D02*
X147262619Y-100671428D01*
X146215000Y-100433333D02*
X146929285Y-100195238D01*
X146929285Y-100195238D02*
X146929285Y-100814285D01*
%TO.C,D3*%
X114862619Y-55761905D02*
X113862619Y-55761905D01*
X113862619Y-55761905D02*
X113862619Y-56000000D01*
X113862619Y-56000000D02*
X113910238Y-56142857D01*
X113910238Y-56142857D02*
X114005476Y-56238095D01*
X114005476Y-56238095D02*
X114100714Y-56285714D01*
X114100714Y-56285714D02*
X114291190Y-56333333D01*
X114291190Y-56333333D02*
X114434047Y-56333333D01*
X114434047Y-56333333D02*
X114624523Y-56285714D01*
X114624523Y-56285714D02*
X114719761Y-56238095D01*
X114719761Y-56238095D02*
X114815000Y-56142857D01*
X114815000Y-56142857D02*
X114862619Y-56000000D01*
X114862619Y-56000000D02*
X114862619Y-55761905D01*
X113862619Y-56666667D02*
X113862619Y-57285714D01*
X113862619Y-57285714D02*
X114243571Y-56952381D01*
X114243571Y-56952381D02*
X114243571Y-57095238D01*
X114243571Y-57095238D02*
X114291190Y-57190476D01*
X114291190Y-57190476D02*
X114338809Y-57238095D01*
X114338809Y-57238095D02*
X114434047Y-57285714D01*
X114434047Y-57285714D02*
X114672142Y-57285714D01*
X114672142Y-57285714D02*
X114767380Y-57238095D01*
X114767380Y-57238095D02*
X114815000Y-57190476D01*
X114815000Y-57190476D02*
X114862619Y-57095238D01*
X114862619Y-57095238D02*
X114862619Y-56809524D01*
X114862619Y-56809524D02*
X114815000Y-56714286D01*
X114815000Y-56714286D02*
X114767380Y-56666667D01*
%TO.C,JP3*%
X134662619Y-98766666D02*
X135376904Y-98766666D01*
X135376904Y-98766666D02*
X135519761Y-98719047D01*
X135519761Y-98719047D02*
X135615000Y-98623809D01*
X135615000Y-98623809D02*
X135662619Y-98480952D01*
X135662619Y-98480952D02*
X135662619Y-98385714D01*
X135662619Y-99242857D02*
X134662619Y-99242857D01*
X134662619Y-99242857D02*
X134662619Y-99623809D01*
X134662619Y-99623809D02*
X134710238Y-99719047D01*
X134710238Y-99719047D02*
X134757857Y-99766666D01*
X134757857Y-99766666D02*
X134853095Y-99814285D01*
X134853095Y-99814285D02*
X134995952Y-99814285D01*
X134995952Y-99814285D02*
X135091190Y-99766666D01*
X135091190Y-99766666D02*
X135138809Y-99719047D01*
X135138809Y-99719047D02*
X135186428Y-99623809D01*
X135186428Y-99623809D02*
X135186428Y-99242857D01*
X134662619Y-100147619D02*
X134662619Y-100766666D01*
X134662619Y-100766666D02*
X135043571Y-100433333D01*
X135043571Y-100433333D02*
X135043571Y-100576190D01*
X135043571Y-100576190D02*
X135091190Y-100671428D01*
X135091190Y-100671428D02*
X135138809Y-100719047D01*
X135138809Y-100719047D02*
X135234047Y-100766666D01*
X135234047Y-100766666D02*
X135472142Y-100766666D01*
X135472142Y-100766666D02*
X135567380Y-100719047D01*
X135567380Y-100719047D02*
X135615000Y-100671428D01*
X135615000Y-100671428D02*
X135662619Y-100576190D01*
X135662619Y-100576190D02*
X135662619Y-100290476D01*
X135662619Y-100290476D02*
X135615000Y-100195238D01*
X135615000Y-100195238D02*
X135567380Y-100147619D01*
%TO.C,U3*%
X116007619Y-92235595D02*
X116817142Y-92235595D01*
X116817142Y-92235595D02*
X116912380Y-92283214D01*
X116912380Y-92283214D02*
X116960000Y-92330833D01*
X116960000Y-92330833D02*
X117007619Y-92426071D01*
X117007619Y-92426071D02*
X117007619Y-92616547D01*
X117007619Y-92616547D02*
X116960000Y-92711785D01*
X116960000Y-92711785D02*
X116912380Y-92759404D01*
X116912380Y-92759404D02*
X116817142Y-92807023D01*
X116817142Y-92807023D02*
X116007619Y-92807023D01*
X116007619Y-93187976D02*
X116007619Y-93807023D01*
X116007619Y-93807023D02*
X116388571Y-93473690D01*
X116388571Y-93473690D02*
X116388571Y-93616547D01*
X116388571Y-93616547D02*
X116436190Y-93711785D01*
X116436190Y-93711785D02*
X116483809Y-93759404D01*
X116483809Y-93759404D02*
X116579047Y-93807023D01*
X116579047Y-93807023D02*
X116817142Y-93807023D01*
X116817142Y-93807023D02*
X116912380Y-93759404D01*
X116912380Y-93759404D02*
X116960000Y-93711785D01*
X116960000Y-93711785D02*
X117007619Y-93616547D01*
X117007619Y-93616547D02*
X117007619Y-93330833D01*
X117007619Y-93330833D02*
X116960000Y-93235595D01*
X116960000Y-93235595D02*
X116912380Y-93187976D01*
%TO.C,R7*%
X151862619Y-83245833D02*
X151386428Y-82912500D01*
X151862619Y-82674405D02*
X150862619Y-82674405D01*
X150862619Y-82674405D02*
X150862619Y-83055357D01*
X150862619Y-83055357D02*
X150910238Y-83150595D01*
X150910238Y-83150595D02*
X150957857Y-83198214D01*
X150957857Y-83198214D02*
X151053095Y-83245833D01*
X151053095Y-83245833D02*
X151195952Y-83245833D01*
X151195952Y-83245833D02*
X151291190Y-83198214D01*
X151291190Y-83198214D02*
X151338809Y-83150595D01*
X151338809Y-83150595D02*
X151386428Y-83055357D01*
X151386428Y-83055357D02*
X151386428Y-82674405D01*
X150862619Y-83579167D02*
X150862619Y-84245833D01*
X150862619Y-84245833D02*
X151862619Y-83817262D01*
%TO.C,U1*%
X186707619Y-159233095D02*
X187517142Y-159233095D01*
X187517142Y-159233095D02*
X187612380Y-159280714D01*
X187612380Y-159280714D02*
X187660000Y-159328333D01*
X187660000Y-159328333D02*
X187707619Y-159423571D01*
X187707619Y-159423571D02*
X187707619Y-159614047D01*
X187707619Y-159614047D02*
X187660000Y-159709285D01*
X187660000Y-159709285D02*
X187612380Y-159756904D01*
X187612380Y-159756904D02*
X187517142Y-159804523D01*
X187517142Y-159804523D02*
X186707619Y-159804523D01*
X187707619Y-160804523D02*
X187707619Y-160233095D01*
X187707619Y-160518809D02*
X186707619Y-160518809D01*
X186707619Y-160518809D02*
X186850476Y-160423571D01*
X186850476Y-160423571D02*
X186945714Y-160328333D01*
X186945714Y-160328333D02*
X186993333Y-160233095D01*
%TO.C,JP1*%
X131862619Y-98766666D02*
X132576904Y-98766666D01*
X132576904Y-98766666D02*
X132719761Y-98719047D01*
X132719761Y-98719047D02*
X132815000Y-98623809D01*
X132815000Y-98623809D02*
X132862619Y-98480952D01*
X132862619Y-98480952D02*
X132862619Y-98385714D01*
X132862619Y-99242857D02*
X131862619Y-99242857D01*
X131862619Y-99242857D02*
X131862619Y-99623809D01*
X131862619Y-99623809D02*
X131910238Y-99719047D01*
X131910238Y-99719047D02*
X131957857Y-99766666D01*
X131957857Y-99766666D02*
X132053095Y-99814285D01*
X132053095Y-99814285D02*
X132195952Y-99814285D01*
X132195952Y-99814285D02*
X132291190Y-99766666D01*
X132291190Y-99766666D02*
X132338809Y-99719047D01*
X132338809Y-99719047D02*
X132386428Y-99623809D01*
X132386428Y-99623809D02*
X132386428Y-99242857D01*
X132862619Y-100766666D02*
X132862619Y-100195238D01*
X132862619Y-100480952D02*
X131862619Y-100480952D01*
X131862619Y-100480952D02*
X132005476Y-100385714D01*
X132005476Y-100385714D02*
X132100714Y-100290476D01*
X132100714Y-100290476D02*
X132148333Y-100195238D01*
%TO.C,R4*%
X124862619Y-87433333D02*
X124386428Y-87100000D01*
X124862619Y-86861905D02*
X123862619Y-86861905D01*
X123862619Y-86861905D02*
X123862619Y-87242857D01*
X123862619Y-87242857D02*
X123910238Y-87338095D01*
X123910238Y-87338095D02*
X123957857Y-87385714D01*
X123957857Y-87385714D02*
X124053095Y-87433333D01*
X124053095Y-87433333D02*
X124195952Y-87433333D01*
X124195952Y-87433333D02*
X124291190Y-87385714D01*
X124291190Y-87385714D02*
X124338809Y-87338095D01*
X124338809Y-87338095D02*
X124386428Y-87242857D01*
X124386428Y-87242857D02*
X124386428Y-86861905D01*
X124195952Y-88290476D02*
X124862619Y-88290476D01*
X123815000Y-88052381D02*
X124529285Y-87814286D01*
X124529285Y-87814286D02*
X124529285Y-88433333D01*
%TO.C,JP16*%
X139109523Y-59262619D02*
X139109523Y-59976904D01*
X139109523Y-59976904D02*
X139157142Y-60119761D01*
X139157142Y-60119761D02*
X139252380Y-60215000D01*
X139252380Y-60215000D02*
X139395237Y-60262619D01*
X139395237Y-60262619D02*
X139490475Y-60262619D01*
X138633332Y-60262619D02*
X138633332Y-59262619D01*
X138633332Y-59262619D02*
X138252380Y-59262619D01*
X138252380Y-59262619D02*
X138157142Y-59310238D01*
X138157142Y-59310238D02*
X138109523Y-59357857D01*
X138109523Y-59357857D02*
X138061904Y-59453095D01*
X138061904Y-59453095D02*
X138061904Y-59595952D01*
X138061904Y-59595952D02*
X138109523Y-59691190D01*
X138109523Y-59691190D02*
X138157142Y-59738809D01*
X138157142Y-59738809D02*
X138252380Y-59786428D01*
X138252380Y-59786428D02*
X138633332Y-59786428D01*
X137109523Y-60262619D02*
X137680951Y-60262619D01*
X137395237Y-60262619D02*
X137395237Y-59262619D01*
X137395237Y-59262619D02*
X137490475Y-59405476D01*
X137490475Y-59405476D02*
X137585713Y-59500714D01*
X137585713Y-59500714D02*
X137680951Y-59548333D01*
X136252380Y-59262619D02*
X136442856Y-59262619D01*
X136442856Y-59262619D02*
X136538094Y-59310238D01*
X136538094Y-59310238D02*
X136585713Y-59357857D01*
X136585713Y-59357857D02*
X136680951Y-59500714D01*
X136680951Y-59500714D02*
X136728570Y-59691190D01*
X136728570Y-59691190D02*
X136728570Y-60072142D01*
X136728570Y-60072142D02*
X136680951Y-60167380D01*
X136680951Y-60167380D02*
X136633332Y-60215000D01*
X136633332Y-60215000D02*
X136538094Y-60262619D01*
X136538094Y-60262619D02*
X136347618Y-60262619D01*
X136347618Y-60262619D02*
X136252380Y-60215000D01*
X136252380Y-60215000D02*
X136204761Y-60167380D01*
X136204761Y-60167380D02*
X136157142Y-60072142D01*
X136157142Y-60072142D02*
X136157142Y-59834047D01*
X136157142Y-59834047D02*
X136204761Y-59738809D01*
X136204761Y-59738809D02*
X136252380Y-59691190D01*
X136252380Y-59691190D02*
X136347618Y-59643571D01*
X136347618Y-59643571D02*
X136538094Y-59643571D01*
X136538094Y-59643571D02*
X136633332Y-59691190D01*
X136633332Y-59691190D02*
X136680951Y-59738809D01*
X136680951Y-59738809D02*
X136728570Y-59834047D01*
%TO.C,JP8*%
X140862619Y-98766666D02*
X141576904Y-98766666D01*
X141576904Y-98766666D02*
X141719761Y-98719047D01*
X141719761Y-98719047D02*
X141815000Y-98623809D01*
X141815000Y-98623809D02*
X141862619Y-98480952D01*
X141862619Y-98480952D02*
X141862619Y-98385714D01*
X141862619Y-99242857D02*
X140862619Y-99242857D01*
X140862619Y-99242857D02*
X140862619Y-99623809D01*
X140862619Y-99623809D02*
X140910238Y-99719047D01*
X140910238Y-99719047D02*
X140957857Y-99766666D01*
X140957857Y-99766666D02*
X141053095Y-99814285D01*
X141053095Y-99814285D02*
X141195952Y-99814285D01*
X141195952Y-99814285D02*
X141291190Y-99766666D01*
X141291190Y-99766666D02*
X141338809Y-99719047D01*
X141338809Y-99719047D02*
X141386428Y-99623809D01*
X141386428Y-99623809D02*
X141386428Y-99242857D01*
X141291190Y-100385714D02*
X141243571Y-100290476D01*
X141243571Y-100290476D02*
X141195952Y-100242857D01*
X141195952Y-100242857D02*
X141100714Y-100195238D01*
X141100714Y-100195238D02*
X141053095Y-100195238D01*
X141053095Y-100195238D02*
X140957857Y-100242857D01*
X140957857Y-100242857D02*
X140910238Y-100290476D01*
X140910238Y-100290476D02*
X140862619Y-100385714D01*
X140862619Y-100385714D02*
X140862619Y-100576190D01*
X140862619Y-100576190D02*
X140910238Y-100671428D01*
X140910238Y-100671428D02*
X140957857Y-100719047D01*
X140957857Y-100719047D02*
X141053095Y-100766666D01*
X141053095Y-100766666D02*
X141100714Y-100766666D01*
X141100714Y-100766666D02*
X141195952Y-100719047D01*
X141195952Y-100719047D02*
X141243571Y-100671428D01*
X141243571Y-100671428D02*
X141291190Y-100576190D01*
X141291190Y-100576190D02*
X141291190Y-100385714D01*
X141291190Y-100385714D02*
X141338809Y-100290476D01*
X141338809Y-100290476D02*
X141386428Y-100242857D01*
X141386428Y-100242857D02*
X141481666Y-100195238D01*
X141481666Y-100195238D02*
X141672142Y-100195238D01*
X141672142Y-100195238D02*
X141767380Y-100242857D01*
X141767380Y-100242857D02*
X141815000Y-100290476D01*
X141815000Y-100290476D02*
X141862619Y-100385714D01*
X141862619Y-100385714D02*
X141862619Y-100576190D01*
X141862619Y-100576190D02*
X141815000Y-100671428D01*
X141815000Y-100671428D02*
X141767380Y-100719047D01*
X141767380Y-100719047D02*
X141672142Y-100766666D01*
X141672142Y-100766666D02*
X141481666Y-100766666D01*
X141481666Y-100766666D02*
X141386428Y-100719047D01*
X141386428Y-100719047D02*
X141338809Y-100671428D01*
X141338809Y-100671428D02*
X141291190Y-100576190D01*
%TO.C,JP9*%
X143462619Y-98966666D02*
X144176904Y-98966666D01*
X144176904Y-98966666D02*
X144319761Y-98919047D01*
X144319761Y-98919047D02*
X144415000Y-98823809D01*
X144415000Y-98823809D02*
X144462619Y-98680952D01*
X144462619Y-98680952D02*
X144462619Y-98585714D01*
X144462619Y-99442857D02*
X143462619Y-99442857D01*
X143462619Y-99442857D02*
X143462619Y-99823809D01*
X143462619Y-99823809D02*
X143510238Y-99919047D01*
X143510238Y-99919047D02*
X143557857Y-99966666D01*
X143557857Y-99966666D02*
X143653095Y-100014285D01*
X143653095Y-100014285D02*
X143795952Y-100014285D01*
X143795952Y-100014285D02*
X143891190Y-99966666D01*
X143891190Y-99966666D02*
X143938809Y-99919047D01*
X143938809Y-99919047D02*
X143986428Y-99823809D01*
X143986428Y-99823809D02*
X143986428Y-99442857D01*
X144462619Y-100490476D02*
X144462619Y-100680952D01*
X144462619Y-100680952D02*
X144415000Y-100776190D01*
X144415000Y-100776190D02*
X144367380Y-100823809D01*
X144367380Y-100823809D02*
X144224523Y-100919047D01*
X144224523Y-100919047D02*
X144034047Y-100966666D01*
X144034047Y-100966666D02*
X143653095Y-100966666D01*
X143653095Y-100966666D02*
X143557857Y-100919047D01*
X143557857Y-100919047D02*
X143510238Y-100871428D01*
X143510238Y-100871428D02*
X143462619Y-100776190D01*
X143462619Y-100776190D02*
X143462619Y-100585714D01*
X143462619Y-100585714D02*
X143510238Y-100490476D01*
X143510238Y-100490476D02*
X143557857Y-100442857D01*
X143557857Y-100442857D02*
X143653095Y-100395238D01*
X143653095Y-100395238D02*
X143891190Y-100395238D01*
X143891190Y-100395238D02*
X143986428Y-100442857D01*
X143986428Y-100442857D02*
X144034047Y-100490476D01*
X144034047Y-100490476D02*
X144081666Y-100585714D01*
X144081666Y-100585714D02*
X144081666Y-100776190D01*
X144081666Y-100776190D02*
X144034047Y-100871428D01*
X144034047Y-100871428D02*
X143986428Y-100919047D01*
X143986428Y-100919047D02*
X143891190Y-100966666D01*
%TO.C,JP5*%
X148662619Y-98966666D02*
X149376904Y-98966666D01*
X149376904Y-98966666D02*
X149519761Y-98919047D01*
X149519761Y-98919047D02*
X149615000Y-98823809D01*
X149615000Y-98823809D02*
X149662619Y-98680952D01*
X149662619Y-98680952D02*
X149662619Y-98585714D01*
X149662619Y-99442857D02*
X148662619Y-99442857D01*
X148662619Y-99442857D02*
X148662619Y-99823809D01*
X148662619Y-99823809D02*
X148710238Y-99919047D01*
X148710238Y-99919047D02*
X148757857Y-99966666D01*
X148757857Y-99966666D02*
X148853095Y-100014285D01*
X148853095Y-100014285D02*
X148995952Y-100014285D01*
X148995952Y-100014285D02*
X149091190Y-99966666D01*
X149091190Y-99966666D02*
X149138809Y-99919047D01*
X149138809Y-99919047D02*
X149186428Y-99823809D01*
X149186428Y-99823809D02*
X149186428Y-99442857D01*
X148662619Y-100919047D02*
X148662619Y-100442857D01*
X148662619Y-100442857D02*
X149138809Y-100395238D01*
X149138809Y-100395238D02*
X149091190Y-100442857D01*
X149091190Y-100442857D02*
X149043571Y-100538095D01*
X149043571Y-100538095D02*
X149043571Y-100776190D01*
X149043571Y-100776190D02*
X149091190Y-100871428D01*
X149091190Y-100871428D02*
X149138809Y-100919047D01*
X149138809Y-100919047D02*
X149234047Y-100966666D01*
X149234047Y-100966666D02*
X149472142Y-100966666D01*
X149472142Y-100966666D02*
X149567380Y-100919047D01*
X149567380Y-100919047D02*
X149615000Y-100871428D01*
X149615000Y-100871428D02*
X149662619Y-100776190D01*
X149662619Y-100776190D02*
X149662619Y-100538095D01*
X149662619Y-100538095D02*
X149615000Y-100442857D01*
X149615000Y-100442857D02*
X149567380Y-100395238D01*
%TO.C,JP2*%
X129062619Y-98766666D02*
X129776904Y-98766666D01*
X129776904Y-98766666D02*
X129919761Y-98719047D01*
X129919761Y-98719047D02*
X130015000Y-98623809D01*
X130015000Y-98623809D02*
X130062619Y-98480952D01*
X130062619Y-98480952D02*
X130062619Y-98385714D01*
X130062619Y-99242857D02*
X129062619Y-99242857D01*
X129062619Y-99242857D02*
X129062619Y-99623809D01*
X129062619Y-99623809D02*
X129110238Y-99719047D01*
X129110238Y-99719047D02*
X129157857Y-99766666D01*
X129157857Y-99766666D02*
X129253095Y-99814285D01*
X129253095Y-99814285D02*
X129395952Y-99814285D01*
X129395952Y-99814285D02*
X129491190Y-99766666D01*
X129491190Y-99766666D02*
X129538809Y-99719047D01*
X129538809Y-99719047D02*
X129586428Y-99623809D01*
X129586428Y-99623809D02*
X129586428Y-99242857D01*
X129157857Y-100195238D02*
X129110238Y-100242857D01*
X129110238Y-100242857D02*
X129062619Y-100338095D01*
X129062619Y-100338095D02*
X129062619Y-100576190D01*
X129062619Y-100576190D02*
X129110238Y-100671428D01*
X129110238Y-100671428D02*
X129157857Y-100719047D01*
X129157857Y-100719047D02*
X129253095Y-100766666D01*
X129253095Y-100766666D02*
X129348333Y-100766666D01*
X129348333Y-100766666D02*
X129491190Y-100719047D01*
X129491190Y-100719047D02*
X130062619Y-100147619D01*
X130062619Y-100147619D02*
X130062619Y-100766666D01*
%TO.C,JP7*%
X137462619Y-98566666D02*
X138176904Y-98566666D01*
X138176904Y-98566666D02*
X138319761Y-98519047D01*
X138319761Y-98519047D02*
X138415000Y-98423809D01*
X138415000Y-98423809D02*
X138462619Y-98280952D01*
X138462619Y-98280952D02*
X138462619Y-98185714D01*
X138462619Y-99042857D02*
X137462619Y-99042857D01*
X137462619Y-99042857D02*
X137462619Y-99423809D01*
X137462619Y-99423809D02*
X137510238Y-99519047D01*
X137510238Y-99519047D02*
X137557857Y-99566666D01*
X137557857Y-99566666D02*
X137653095Y-99614285D01*
X137653095Y-99614285D02*
X137795952Y-99614285D01*
X137795952Y-99614285D02*
X137891190Y-99566666D01*
X137891190Y-99566666D02*
X137938809Y-99519047D01*
X137938809Y-99519047D02*
X137986428Y-99423809D01*
X137986428Y-99423809D02*
X137986428Y-99042857D01*
X137462619Y-99947619D02*
X137462619Y-100614285D01*
X137462619Y-100614285D02*
X138462619Y-100185714D01*
%TO.C,JP17*%
X138909523Y-56662619D02*
X138909523Y-57376904D01*
X138909523Y-57376904D02*
X138957142Y-57519761D01*
X138957142Y-57519761D02*
X139052380Y-57615000D01*
X139052380Y-57615000D02*
X139195237Y-57662619D01*
X139195237Y-57662619D02*
X139290475Y-57662619D01*
X138433332Y-57662619D02*
X138433332Y-56662619D01*
X138433332Y-56662619D02*
X138052380Y-56662619D01*
X138052380Y-56662619D02*
X137957142Y-56710238D01*
X137957142Y-56710238D02*
X137909523Y-56757857D01*
X137909523Y-56757857D02*
X137861904Y-56853095D01*
X137861904Y-56853095D02*
X137861904Y-56995952D01*
X137861904Y-56995952D02*
X137909523Y-57091190D01*
X137909523Y-57091190D02*
X137957142Y-57138809D01*
X137957142Y-57138809D02*
X138052380Y-57186428D01*
X138052380Y-57186428D02*
X138433332Y-57186428D01*
X136909523Y-57662619D02*
X137480951Y-57662619D01*
X137195237Y-57662619D02*
X137195237Y-56662619D01*
X137195237Y-56662619D02*
X137290475Y-56805476D01*
X137290475Y-56805476D02*
X137385713Y-56900714D01*
X137385713Y-56900714D02*
X137480951Y-56948333D01*
X136576189Y-56662619D02*
X135909523Y-56662619D01*
X135909523Y-56662619D02*
X136338094Y-57662619D01*
%TO.C,JP20*%
X111062619Y-83090476D02*
X111776904Y-83090476D01*
X111776904Y-83090476D02*
X111919761Y-83042857D01*
X111919761Y-83042857D02*
X112015000Y-82947619D01*
X112015000Y-82947619D02*
X112062619Y-82804762D01*
X112062619Y-82804762D02*
X112062619Y-82709524D01*
X112062619Y-83566667D02*
X111062619Y-83566667D01*
X111062619Y-83566667D02*
X111062619Y-83947619D01*
X111062619Y-83947619D02*
X111110238Y-84042857D01*
X111110238Y-84042857D02*
X111157857Y-84090476D01*
X111157857Y-84090476D02*
X111253095Y-84138095D01*
X111253095Y-84138095D02*
X111395952Y-84138095D01*
X111395952Y-84138095D02*
X111491190Y-84090476D01*
X111491190Y-84090476D02*
X111538809Y-84042857D01*
X111538809Y-84042857D02*
X111586428Y-83947619D01*
X111586428Y-83947619D02*
X111586428Y-83566667D01*
X111157857Y-84519048D02*
X111110238Y-84566667D01*
X111110238Y-84566667D02*
X111062619Y-84661905D01*
X111062619Y-84661905D02*
X111062619Y-84900000D01*
X111062619Y-84900000D02*
X111110238Y-84995238D01*
X111110238Y-84995238D02*
X111157857Y-85042857D01*
X111157857Y-85042857D02*
X111253095Y-85090476D01*
X111253095Y-85090476D02*
X111348333Y-85090476D01*
X111348333Y-85090476D02*
X111491190Y-85042857D01*
X111491190Y-85042857D02*
X112062619Y-84471429D01*
X112062619Y-84471429D02*
X112062619Y-85090476D01*
X111062619Y-85709524D02*
X111062619Y-85804762D01*
X111062619Y-85804762D02*
X111110238Y-85900000D01*
X111110238Y-85900000D02*
X111157857Y-85947619D01*
X111157857Y-85947619D02*
X111253095Y-85995238D01*
X111253095Y-85995238D02*
X111443571Y-86042857D01*
X111443571Y-86042857D02*
X111681666Y-86042857D01*
X111681666Y-86042857D02*
X111872142Y-85995238D01*
X111872142Y-85995238D02*
X111967380Y-85947619D01*
X111967380Y-85947619D02*
X112015000Y-85900000D01*
X112015000Y-85900000D02*
X112062619Y-85804762D01*
X112062619Y-85804762D02*
X112062619Y-85709524D01*
X112062619Y-85709524D02*
X112015000Y-85614286D01*
X112015000Y-85614286D02*
X111967380Y-85566667D01*
X111967380Y-85566667D02*
X111872142Y-85519048D01*
X111872142Y-85519048D02*
X111681666Y-85471429D01*
X111681666Y-85471429D02*
X111443571Y-85471429D01*
X111443571Y-85471429D02*
X111253095Y-85519048D01*
X111253095Y-85519048D02*
X111157857Y-85566667D01*
X111157857Y-85566667D02*
X111110238Y-85614286D01*
X111110238Y-85614286D02*
X111062619Y-85709524D01*
%TO.C,JP21*%
X116462619Y-83090476D02*
X117176904Y-83090476D01*
X117176904Y-83090476D02*
X117319761Y-83042857D01*
X117319761Y-83042857D02*
X117415000Y-82947619D01*
X117415000Y-82947619D02*
X117462619Y-82804762D01*
X117462619Y-82804762D02*
X117462619Y-82709524D01*
X117462619Y-83566667D02*
X116462619Y-83566667D01*
X116462619Y-83566667D02*
X116462619Y-83947619D01*
X116462619Y-83947619D02*
X116510238Y-84042857D01*
X116510238Y-84042857D02*
X116557857Y-84090476D01*
X116557857Y-84090476D02*
X116653095Y-84138095D01*
X116653095Y-84138095D02*
X116795952Y-84138095D01*
X116795952Y-84138095D02*
X116891190Y-84090476D01*
X116891190Y-84090476D02*
X116938809Y-84042857D01*
X116938809Y-84042857D02*
X116986428Y-83947619D01*
X116986428Y-83947619D02*
X116986428Y-83566667D01*
X116557857Y-84519048D02*
X116510238Y-84566667D01*
X116510238Y-84566667D02*
X116462619Y-84661905D01*
X116462619Y-84661905D02*
X116462619Y-84900000D01*
X116462619Y-84900000D02*
X116510238Y-84995238D01*
X116510238Y-84995238D02*
X116557857Y-85042857D01*
X116557857Y-85042857D02*
X116653095Y-85090476D01*
X116653095Y-85090476D02*
X116748333Y-85090476D01*
X116748333Y-85090476D02*
X116891190Y-85042857D01*
X116891190Y-85042857D02*
X117462619Y-84471429D01*
X117462619Y-84471429D02*
X117462619Y-85090476D01*
X117462619Y-86042857D02*
X117462619Y-85471429D01*
X117462619Y-85757143D02*
X116462619Y-85757143D01*
X116462619Y-85757143D02*
X116605476Y-85661905D01*
X116605476Y-85661905D02*
X116700714Y-85566667D01*
X116700714Y-85566667D02*
X116748333Y-85471429D01*
%TO.C,JP18*%
X139109523Y-53662619D02*
X139109523Y-54376904D01*
X139109523Y-54376904D02*
X139157142Y-54519761D01*
X139157142Y-54519761D02*
X139252380Y-54615000D01*
X139252380Y-54615000D02*
X139395237Y-54662619D01*
X139395237Y-54662619D02*
X139490475Y-54662619D01*
X138633332Y-54662619D02*
X138633332Y-53662619D01*
X138633332Y-53662619D02*
X138252380Y-53662619D01*
X138252380Y-53662619D02*
X138157142Y-53710238D01*
X138157142Y-53710238D02*
X138109523Y-53757857D01*
X138109523Y-53757857D02*
X138061904Y-53853095D01*
X138061904Y-53853095D02*
X138061904Y-53995952D01*
X138061904Y-53995952D02*
X138109523Y-54091190D01*
X138109523Y-54091190D02*
X138157142Y-54138809D01*
X138157142Y-54138809D02*
X138252380Y-54186428D01*
X138252380Y-54186428D02*
X138633332Y-54186428D01*
X137109523Y-54662619D02*
X137680951Y-54662619D01*
X137395237Y-54662619D02*
X137395237Y-53662619D01*
X137395237Y-53662619D02*
X137490475Y-53805476D01*
X137490475Y-53805476D02*
X137585713Y-53900714D01*
X137585713Y-53900714D02*
X137680951Y-53948333D01*
X136538094Y-54091190D02*
X136633332Y-54043571D01*
X136633332Y-54043571D02*
X136680951Y-53995952D01*
X136680951Y-53995952D02*
X136728570Y-53900714D01*
X136728570Y-53900714D02*
X136728570Y-53853095D01*
X136728570Y-53853095D02*
X136680951Y-53757857D01*
X136680951Y-53757857D02*
X136633332Y-53710238D01*
X136633332Y-53710238D02*
X136538094Y-53662619D01*
X136538094Y-53662619D02*
X136347618Y-53662619D01*
X136347618Y-53662619D02*
X136252380Y-53710238D01*
X136252380Y-53710238D02*
X136204761Y-53757857D01*
X136204761Y-53757857D02*
X136157142Y-53853095D01*
X136157142Y-53853095D02*
X136157142Y-53900714D01*
X136157142Y-53900714D02*
X136204761Y-53995952D01*
X136204761Y-53995952D02*
X136252380Y-54043571D01*
X136252380Y-54043571D02*
X136347618Y-54091190D01*
X136347618Y-54091190D02*
X136538094Y-54091190D01*
X136538094Y-54091190D02*
X136633332Y-54138809D01*
X136633332Y-54138809D02*
X136680951Y-54186428D01*
X136680951Y-54186428D02*
X136728570Y-54281666D01*
X136728570Y-54281666D02*
X136728570Y-54472142D01*
X136728570Y-54472142D02*
X136680951Y-54567380D01*
X136680951Y-54567380D02*
X136633332Y-54615000D01*
X136633332Y-54615000D02*
X136538094Y-54662619D01*
X136538094Y-54662619D02*
X136347618Y-54662619D01*
X136347618Y-54662619D02*
X136252380Y-54615000D01*
X136252380Y-54615000D02*
X136204761Y-54567380D01*
X136204761Y-54567380D02*
X136157142Y-54472142D01*
X136157142Y-54472142D02*
X136157142Y-54281666D01*
X136157142Y-54281666D02*
X136204761Y-54186428D01*
X136204761Y-54186428D02*
X136252380Y-54138809D01*
X136252380Y-54138809D02*
X136347618Y-54091190D01*
D11*
%TO.C,D4*%
X110600000Y-68660000D02*
X110600000Y-64650000D01*
X112600000Y-68660000D02*
X110600000Y-68660000D01*
X112600000Y-68660000D02*
X112600000Y-64650000D01*
D10*
%TO.C,U7*%
X134520000Y-77572500D02*
X134520000Y-82822500D01*
X139670000Y-78672500D02*
X139670000Y-82822500D01*
D11*
%TO.C,C3*%
X127735000Y-89188748D02*
X127735000Y-89711252D01*
X126265000Y-89188748D02*
X126265000Y-89711252D01*
%TO.C,C5*%
X152515000Y-83811252D02*
X152515000Y-83288748D01*
X153985000Y-83811252D02*
X153985000Y-83288748D01*
%TO.C,JP24*%
X143500000Y-75425000D02*
X145500000Y-75425000D01*
X145500000Y-75425000D02*
X145500000Y-72625000D01*
X143500000Y-72625000D02*
X143500000Y-75425000D01*
X145500000Y-72625000D02*
X143500000Y-72625000D01*
%TO.C,JP22*%
X140500000Y-75425000D02*
X142500000Y-75425000D01*
X142500000Y-75425000D02*
X142500000Y-72625000D01*
X140500000Y-72625000D02*
X140500000Y-75425000D01*
X142500000Y-72625000D02*
X140500000Y-72625000D01*
%TO.C,Q3*%
X122595000Y-68675000D02*
X122595000Y-68405000D01*
X122595000Y-68405000D02*
X123695000Y-68405000D01*
X122595000Y-62045000D02*
X125425000Y-62045000D01*
X122595000Y-61775000D02*
X122595000Y-62045000D01*
X116175000Y-68675000D02*
X122595000Y-68675000D01*
X116175000Y-61775000D02*
X122595000Y-61775000D01*
%TO.C,JP6*%
X153250000Y-95075000D02*
X151250000Y-95075000D01*
X151250000Y-95075000D02*
X151250000Y-97875000D01*
X153250000Y-97875000D02*
X153250000Y-95075000D01*
X151250000Y-97875000D02*
X153250000Y-97875000D01*
%TO.C,C6*%
X138015000Y-74711252D02*
X138015000Y-74188748D01*
X139485000Y-74711252D02*
X139485000Y-74188748D01*
%TO.C,R1*%
X115735000Y-147972936D02*
X115735000Y-148427064D01*
X114265000Y-147972936D02*
X114265000Y-148427064D01*
%TO.C,C4*%
X118515000Y-85211252D02*
X118515000Y-84688748D01*
X119985000Y-85211252D02*
X119985000Y-84688748D01*
%TO.C,R5*%
X123765000Y-95227064D02*
X123765000Y-94772936D01*
X125235000Y-95227064D02*
X125235000Y-94772936D01*
%TO.C,JP15*%
X132675000Y-67000000D02*
X132675000Y-69000000D01*
X132675000Y-69000000D02*
X135475000Y-69000000D01*
X135475000Y-67000000D02*
X132675000Y-67000000D01*
X135475000Y-69000000D02*
X135475000Y-67000000D01*
%TO.C,R6*%
X160235000Y-78022936D02*
X160235000Y-78477064D01*
X158765000Y-78022936D02*
X158765000Y-78477064D01*
%TO.C,JP13*%
X133025000Y-70200000D02*
X133025000Y-72200000D01*
X133025000Y-72200000D02*
X135825000Y-72200000D01*
X135825000Y-70200000D02*
X133025000Y-70200000D01*
X135825000Y-72200000D02*
X135825000Y-70200000D01*
%TO.C,JP23*%
X146500000Y-75400000D02*
X148500000Y-75400000D01*
X148500000Y-75400000D02*
X148500000Y-72600000D01*
X146500000Y-72600000D02*
X146500000Y-75400000D01*
X148500000Y-72600000D02*
X146500000Y-72600000D01*
%TO.C,JP14*%
X132675000Y-63100000D02*
X132675000Y-65100000D01*
X132675000Y-65100000D02*
X135475000Y-65100000D01*
X135475000Y-63100000D02*
X132675000Y-63100000D01*
X135475000Y-65100000D02*
X135475000Y-63100000D01*
%TO.C,D1*%
X108140000Y-159500000D02*
X112150000Y-159500000D01*
X108140000Y-161500000D02*
X108140000Y-159500000D01*
X108140000Y-161500000D02*
X112150000Y-161500000D01*
%TO.C,JP19*%
X113250000Y-89375000D02*
X115250000Y-89375000D01*
X115250000Y-89375000D02*
X115250000Y-86575000D01*
X113250000Y-86575000D02*
X113250000Y-89375000D01*
X115250000Y-86575000D02*
X113250000Y-86575000D01*
%TO.C,Q1*%
X104475000Y-152025000D02*
X110895000Y-152025000D01*
X104475000Y-158925000D02*
X110895000Y-158925000D01*
X110895000Y-152025000D02*
X110895000Y-152295000D01*
X110895000Y-152295000D02*
X113725000Y-152295000D01*
X110895000Y-158655000D02*
X111995000Y-158655000D01*
X110895000Y-158925000D02*
X110895000Y-158655000D01*
%TO.C,R10*%
X128735000Y-64272936D02*
X128735000Y-64727064D01*
X127265000Y-64272936D02*
X127265000Y-64727064D01*
%TO.C,Q2*%
X123570000Y-56470000D02*
X123570000Y-56200000D01*
X123570000Y-56200000D02*
X124670000Y-56200000D01*
X123570000Y-49840000D02*
X126400000Y-49840000D01*
X123570000Y-49570000D02*
X123570000Y-49840000D01*
X117150000Y-56470000D02*
X123570000Y-56470000D01*
X117150000Y-49570000D02*
X123570000Y-49570000D01*
%TO.C,R9*%
X129535000Y-52572936D02*
X129535000Y-53027064D01*
X128065000Y-52572936D02*
X128065000Y-53027064D01*
%TO.C,JP4*%
X147750000Y-95075000D02*
X145750000Y-95075000D01*
X145750000Y-95075000D02*
X145750000Y-97875000D01*
X147750000Y-97875000D02*
X147750000Y-95075000D01*
X145750000Y-97875000D02*
X147750000Y-97875000D01*
%TO.C,D3*%
X111400000Y-58860000D02*
X111400000Y-54850000D01*
X113400000Y-58860000D02*
X111400000Y-58860000D01*
X113400000Y-58860000D02*
X113400000Y-54850000D01*
%TO.C,JP3*%
X136000000Y-95075000D02*
X134000000Y-95075000D01*
X134000000Y-95075000D02*
X134000000Y-97875000D01*
X136000000Y-97875000D02*
X136000000Y-95075000D01*
X134000000Y-97875000D02*
X136000000Y-97875000D01*
D10*
%TO.C,U3*%
X117270000Y-89822500D02*
X117270000Y-95072500D01*
X122420000Y-90922500D02*
X122420000Y-95072500D01*
D11*
%TO.C,R7*%
X149015000Y-83639564D02*
X149015000Y-83185436D01*
X150485000Y-83639564D02*
X150485000Y-83185436D01*
D12*
%TO.C,U1*%
X148560000Y-163700000D02*
X186560000Y-163700000D01*
X148560000Y-163700000D02*
X148560000Y-109700000D01*
X186560000Y-163700000D02*
X186560000Y-109700000D01*
X148560000Y-109700000D02*
X186560000Y-109700000D01*
D11*
%TO.C,JP1*%
X133250000Y-95075000D02*
X131250000Y-95075000D01*
X131250000Y-95075000D02*
X131250000Y-97875000D01*
X133250000Y-97875000D02*
X133250000Y-95075000D01*
X131250000Y-97875000D02*
X133250000Y-97875000D01*
%TO.C,R4*%
X125235000Y-90185436D02*
X125235000Y-90639564D01*
X123765000Y-90185436D02*
X123765000Y-90639564D01*
%TO.C,JP16*%
X132700000Y-58600000D02*
X132700000Y-60600000D01*
X132700000Y-60600000D02*
X135500000Y-60600000D01*
X135500000Y-58600000D02*
X132700000Y-58600000D01*
X135500000Y-60600000D02*
X135500000Y-58600000D01*
%TO.C,JP8*%
X142200000Y-95075000D02*
X140200000Y-95075000D01*
X140200000Y-95075000D02*
X140200000Y-97875000D01*
X142200000Y-97875000D02*
X142200000Y-95075000D01*
X140200000Y-97875000D02*
X142200000Y-97875000D01*
%TO.C,JP9*%
X145000000Y-95075000D02*
X143000000Y-95075000D01*
X143000000Y-95075000D02*
X143000000Y-97875000D01*
X145000000Y-97875000D02*
X145000000Y-95075000D01*
X143000000Y-97875000D02*
X145000000Y-97875000D01*
%TO.C,JP5*%
X150500000Y-95125000D02*
X148500000Y-95125000D01*
X148500000Y-95125000D02*
X148500000Y-97925000D01*
X150500000Y-97925000D02*
X150500000Y-95125000D01*
X148500000Y-97925000D02*
X150500000Y-97925000D01*
%TO.C,JP2*%
X130500000Y-95075000D02*
X128500000Y-95075000D01*
X128500000Y-95075000D02*
X128500000Y-97875000D01*
X130500000Y-97875000D02*
X130500000Y-95075000D01*
X128500000Y-97875000D02*
X130500000Y-97875000D01*
%TO.C,JP7*%
X137000000Y-97875000D02*
X139000000Y-97875000D01*
X139000000Y-97875000D02*
X139000000Y-95075000D01*
X137000000Y-95075000D02*
X137000000Y-97875000D01*
X139000000Y-95075000D02*
X137000000Y-95075000D01*
%TO.C,JP17*%
X132775000Y-56000000D02*
X132775000Y-58000000D01*
X132775000Y-58000000D02*
X135575000Y-58000000D01*
X135575000Y-56000000D02*
X132775000Y-56000000D01*
X135575000Y-58000000D02*
X135575000Y-56000000D01*
%TO.C,JP20*%
X110500000Y-89400000D02*
X112500000Y-89400000D01*
X112500000Y-89400000D02*
X112500000Y-86600000D01*
X110500000Y-86600000D02*
X110500000Y-89400000D01*
X112500000Y-86600000D02*
X110500000Y-86600000D01*
%TO.C,JP21*%
X116000000Y-89150000D02*
X118000000Y-89150000D01*
X118000000Y-89150000D02*
X118000000Y-86350000D01*
X116000000Y-86350000D02*
X116000000Y-89150000D01*
X118000000Y-86350000D02*
X116000000Y-86350000D01*
%TO.C,JP18*%
X132675000Y-53400000D02*
X132675000Y-55400000D01*
X132675000Y-55400000D02*
X135475000Y-55400000D01*
X135475000Y-53400000D02*
X132675000Y-53400000D01*
X135475000Y-55400000D02*
X135475000Y-53400000D01*
%TD*%
%LPC*%
D13*
%TO.C,J2*%
X111200000Y-144000000D03*
D14*
X111200000Y-149080000D03*
%TD*%
D15*
%TO.C,J12*%
X115759810Y-162100000D03*
D16*
X118299810Y-162100000D03*
%TD*%
D17*
%TO.C,J24*%
X107000000Y-73500000D03*
D18*
X107000000Y-76000000D03*
%TD*%
D15*
%TO.C,J18*%
X122799810Y-157900000D03*
D16*
X125339810Y-157900000D03*
%TD*%
D19*
%TO.C,H4*%
X196600000Y-167000000D03*
X197302944Y-165302944D03*
X197302944Y-168697056D03*
X199000000Y-164600000D03*
D20*
X199000000Y-167000000D03*
D19*
X199000000Y-169400000D03*
X200697056Y-165302944D03*
X200697056Y-168697056D03*
X201400000Y-167000000D03*
%TD*%
D15*
%TO.C,J13*%
X129959810Y-162100000D03*
D16*
X132499810Y-162100000D03*
%TD*%
D21*
%TO.C,C8*%
X139600000Y-127647349D03*
D22*
X139600000Y-124147349D03*
%TD*%
%TO.C,C9*%
X139600000Y-117500000D03*
D21*
X139600000Y-114000000D03*
%TD*%
D15*
%TO.C,J10*%
X141320000Y-171200000D03*
D16*
X143860000Y-171200000D03*
X146400000Y-171200000D03*
%TD*%
D19*
%TO.C,H1*%
X113400000Y-49000000D03*
X112697056Y-50697056D03*
X112697056Y-47302944D03*
X111000000Y-51400000D03*
D20*
X111000000Y-49000000D03*
D19*
X111000000Y-46600000D03*
X109302944Y-50697056D03*
X109302944Y-47302944D03*
X108600000Y-49000000D03*
%TD*%
D23*
%TO.C,J19*%
X107000000Y-114500000D03*
D24*
X107000000Y-117000000D03*
X107000000Y-119500000D03*
X107000000Y-122000000D03*
%TD*%
D17*
%TO.C,J23*%
X107000000Y-64500000D03*
D18*
X107000000Y-67000000D03*
%TD*%
D22*
%TO.C,A3*%
X139740000Y-137500000D03*
D25*
X137200000Y-137500000D03*
X134660000Y-137500000D03*
X132120000Y-137500000D03*
X129580000Y-137500000D03*
X127040000Y-137500000D03*
X124500000Y-137500000D03*
X121960000Y-137500000D03*
X121960000Y-150200000D03*
X124500000Y-150200000D03*
X127040000Y-150200000D03*
X129580000Y-150200000D03*
X132120000Y-150200000D03*
X134660000Y-150200000D03*
X137200000Y-150200000D03*
X139740000Y-150200000D03*
%TD*%
D26*
%TO.C,U4*%
X186110000Y-54680000D03*
X203890000Y-54680000D03*
X203890000Y-95320000D03*
D27*
X186110000Y-95320000D03*
%TD*%
D22*
%TO.C,A2*%
X133030000Y-102050000D03*
D25*
X130490000Y-102050000D03*
X127950000Y-102050000D03*
X125410000Y-102050000D03*
X122870000Y-102050000D03*
X120330000Y-102050000D03*
X117790000Y-102050000D03*
X115250000Y-102050000D03*
X115250000Y-114750000D03*
X117790000Y-114750000D03*
X120330000Y-114750000D03*
X122870000Y-114750000D03*
X125410000Y-114750000D03*
X127950000Y-114750000D03*
X130490000Y-114750000D03*
X133030000Y-114750000D03*
%TD*%
D15*
%TO.C,J25*%
X159420000Y-171400000D03*
D16*
X161960000Y-171400000D03*
X164500000Y-171400000D03*
%TD*%
D27*
%TO.C,U2*%
X161110000Y-95320000D03*
D26*
X178890000Y-95320000D03*
X178890000Y-54680000D03*
X161110000Y-54680000D03*
%TD*%
D17*
%TO.C,J11*%
X107000000Y-91500000D03*
D18*
X107000000Y-94000000D03*
%TD*%
D23*
%TO.C,J17*%
X107000000Y-100500000D03*
D24*
X107000000Y-103000000D03*
X107000000Y-105500000D03*
X107000000Y-108000000D03*
%TD*%
D15*
%TO.C,J9*%
X168375000Y-171600000D03*
D16*
X170915000Y-171600000D03*
X173455000Y-171600000D03*
%TD*%
D15*
%TO.C,J20*%
X115999810Y-157700000D03*
D16*
X118539810Y-157700000D03*
%TD*%
D22*
%TO.C,C7*%
X142000000Y-108100000D03*
D21*
X142000000Y-104600000D03*
%TD*%
D15*
%TO.C,J26*%
X150420000Y-171200000D03*
D16*
X152960000Y-171200000D03*
X155500000Y-171200000D03*
%TD*%
%TO.C,J6*%
X146520000Y-166500000D03*
X149060000Y-166500000D03*
X151600000Y-166500000D03*
X154140000Y-166500000D03*
X156680000Y-166500000D03*
X159220000Y-166500000D03*
X161760000Y-166500000D03*
D15*
X164300000Y-166500000D03*
%TD*%
%TO.C,J5*%
X145300000Y-134800000D03*
D16*
X145300000Y-137340000D03*
X145300000Y-139880000D03*
X145300000Y-142420000D03*
%TD*%
%TO.C,J8*%
X119200000Y-172600000D03*
X116660000Y-172600000D03*
D15*
X114120000Y-172600000D03*
%TD*%
D22*
%TO.C,A1*%
X133030000Y-120000000D03*
D25*
X130490000Y-120000000D03*
X127950000Y-120000000D03*
X125410000Y-120000000D03*
X122870000Y-120000000D03*
X120330000Y-120000000D03*
X117790000Y-120000000D03*
X115250000Y-120000000D03*
X115250000Y-132700000D03*
X117790000Y-132700000D03*
X120330000Y-132700000D03*
X122870000Y-132700000D03*
X125410000Y-132700000D03*
X127950000Y-132700000D03*
X130490000Y-132700000D03*
X133030000Y-132700000D03*
%TD*%
D16*
%TO.C,J7*%
X128100000Y-171400000D03*
X125560000Y-171400000D03*
D15*
X123020000Y-171400000D03*
%TD*%
D16*
%TO.C,J21*%
X168860000Y-166600000D03*
X171400000Y-166600000D03*
X173940000Y-166600000D03*
X176480000Y-166600000D03*
X179020000Y-166600000D03*
X181560000Y-166600000D03*
X184100000Y-166600000D03*
D15*
X186640000Y-166600000D03*
%TD*%
%TO.C,J14*%
X130339810Y-158100000D03*
D16*
X132879810Y-158100000D03*
%TD*%
D17*
%TO.C,J22*%
X107200000Y-55600000D03*
D18*
X107200000Y-58100000D03*
%TD*%
D19*
%TO.C,H3*%
X108600000Y-167000000D03*
X109302944Y-165302944D03*
X109302944Y-168697056D03*
X111000000Y-164600000D03*
D20*
X111000000Y-167000000D03*
D19*
X111000000Y-169400000D03*
X112697056Y-165302944D03*
X112697056Y-168697056D03*
X113400000Y-167000000D03*
%TD*%
D17*
%TO.C,J15*%
X107000000Y-82500000D03*
D18*
X107000000Y-85000000D03*
%TD*%
D15*
%TO.C,J27*%
X177900000Y-171100000D03*
D16*
X180440000Y-171100000D03*
X182980000Y-171100000D03*
%TD*%
D15*
%TO.C,J16*%
X123299810Y-162100000D03*
D16*
X125839810Y-162100000D03*
%TD*%
D15*
%TO.C,J28*%
X116860000Y-166100000D03*
D16*
X119400000Y-166100000D03*
%TD*%
D23*
%TO.C,J3*%
X107000000Y-128500000D03*
D24*
X107000000Y-131000000D03*
X107000000Y-133500000D03*
X107000000Y-136000000D03*
%TD*%
D15*
%TO.C,J4*%
X123460000Y-166200000D03*
D16*
X126000000Y-166200000D03*
%TD*%
D15*
%TO.C,J1*%
X132220000Y-171200000D03*
D16*
X134760000Y-171200000D03*
X137300000Y-171200000D03*
%TD*%
D19*
%TO.C,H2*%
X196600000Y-49000000D03*
X197302944Y-47302944D03*
X197302944Y-50697056D03*
X199000000Y-46600000D03*
D20*
X199000000Y-49000000D03*
D19*
X199000000Y-51400000D03*
X200697056Y-47302944D03*
X200697056Y-50697056D03*
X201400000Y-49000000D03*
%TD*%
D27*
%TO.C,U5*%
X136000000Y-89640000D03*
D26*
X153780000Y-89640000D03*
X153780000Y-49000000D03*
X136000000Y-49000000D03*
%TD*%
D28*
%TO.C,D4*%
X111600000Y-67950000D03*
X111600000Y-64650000D03*
%TD*%
D29*
%TO.C,U7*%
X135190000Y-78250000D03*
X136460000Y-78250000D03*
X137730000Y-78250000D03*
X139000000Y-78250000D03*
X139000000Y-83245000D03*
X137730000Y-83245000D03*
X136460000Y-83245000D03*
X135190000Y-83245000D03*
D30*
X137095000Y-80747500D03*
%TD*%
D31*
%TO.C,C3*%
X127000000Y-88500000D03*
X127000000Y-90400000D03*
%TD*%
D32*
%TO.C,C5*%
X153250000Y-84500000D03*
X153250000Y-82600000D03*
%TD*%
D33*
%TO.C,JP24*%
X144500000Y-74750000D03*
D34*
X144500000Y-73300000D03*
%TD*%
D33*
%TO.C,JP22*%
X141500000Y-74750000D03*
D34*
X141500000Y-73300000D03*
%TD*%
D35*
%TO.C,Q3*%
X124325000Y-62945000D03*
D36*
X118025000Y-65225000D03*
D35*
X124325000Y-67505000D03*
%TD*%
D37*
%TO.C,JP6*%
X152250000Y-95750000D03*
D38*
X152250000Y-97200000D03*
%TD*%
D32*
%TO.C,C6*%
X138750000Y-75400000D03*
X138750000Y-73500000D03*
%TD*%
D39*
%TO.C,R1*%
X115000000Y-147200000D03*
X115000000Y-149200000D03*
%TD*%
D32*
%TO.C,C4*%
X119250000Y-85900000D03*
X119250000Y-84000000D03*
%TD*%
D40*
%TO.C,R5*%
X124500000Y-95912500D03*
X124500000Y-94087500D03*
%TD*%
D41*
%TO.C,JP15*%
X133350000Y-68000000D03*
D42*
X134800000Y-68000000D03*
%TD*%
D43*
%TO.C,R6*%
X159500000Y-77337500D03*
X159500000Y-79162500D03*
%TD*%
D41*
%TO.C,JP13*%
X133700000Y-71200000D03*
D42*
X135150000Y-71200000D03*
%TD*%
D33*
%TO.C,JP23*%
X147500000Y-74725000D03*
D34*
X147500000Y-73275000D03*
%TD*%
D41*
%TO.C,JP14*%
X133350000Y-64100000D03*
D42*
X134800000Y-64100000D03*
%TD*%
D44*
%TO.C,D1*%
X108850000Y-160500000D03*
X112150000Y-160500000D03*
%TD*%
D33*
%TO.C,JP19*%
X114250000Y-88700000D03*
D34*
X114250000Y-87250000D03*
%TD*%
D35*
%TO.C,Q1*%
X112625000Y-157755000D03*
D36*
X106325000Y-155475000D03*
D35*
X112625000Y-153195000D03*
%TD*%
D43*
%TO.C,R10*%
X128000000Y-63587500D03*
X128000000Y-65412500D03*
%TD*%
D35*
%TO.C,Q2*%
X125300000Y-50740000D03*
D36*
X119000000Y-53020000D03*
D35*
X125300000Y-55300000D03*
%TD*%
D43*
%TO.C,R9*%
X128800000Y-51887500D03*
X128800000Y-53712500D03*
%TD*%
D37*
%TO.C,JP4*%
X146750000Y-95750000D03*
D38*
X146750000Y-97200000D03*
%TD*%
D28*
%TO.C,D3*%
X112400000Y-58150000D03*
X112400000Y-54850000D03*
%TD*%
D37*
%TO.C,JP3*%
X135000000Y-95750000D03*
D38*
X135000000Y-97200000D03*
%TD*%
D29*
%TO.C,U3*%
X117940000Y-90500000D03*
X119210000Y-90500000D03*
X120480000Y-90500000D03*
X121750000Y-90500000D03*
X121750000Y-95495000D03*
X120480000Y-95495000D03*
X119210000Y-95495000D03*
X117940000Y-95495000D03*
D30*
X119845000Y-92997500D03*
%TD*%
D40*
%TO.C,R7*%
X149750000Y-84325000D03*
X149750000Y-82500000D03*
%TD*%
D45*
%TO.C,U1*%
X149780000Y-154280000D03*
X152320000Y-154280000D03*
X149780000Y-156820000D03*
X152320000Y-156820000D03*
X167560000Y-111100000D03*
X185340000Y-149200000D03*
X182800000Y-149200000D03*
X185340000Y-146660000D03*
X182800000Y-146660000D03*
X185340000Y-144120000D03*
X182800000Y-144120000D03*
X185340000Y-141580000D03*
X182800000Y-141580000D03*
X185340000Y-139040000D03*
X182800000Y-139040000D03*
X185340000Y-136500000D03*
X182800000Y-136500000D03*
X185340000Y-133960000D03*
X182800000Y-133960000D03*
X185340000Y-131420000D03*
X182800000Y-131420000D03*
X152320000Y-151740000D03*
X152320000Y-146660000D03*
X149780000Y-146660000D03*
X152320000Y-144120000D03*
X149780000Y-144120000D03*
X152320000Y-141580000D03*
X149780000Y-141580000D03*
X152320000Y-139040000D03*
X149780000Y-139040000D03*
X152320000Y-136500000D03*
X149780000Y-136500000D03*
X152320000Y-133960000D03*
X149780000Y-133960000D03*
X152320000Y-131420000D03*
X149780000Y-131420000D03*
X152320000Y-128880000D03*
X149780000Y-128880000D03*
X152320000Y-126340000D03*
X149780000Y-126340000D03*
X152320000Y-123800000D03*
X149780000Y-123800000D03*
X152320000Y-121260000D03*
X149780000Y-121260000D03*
X152320000Y-118720000D03*
X149780000Y-118720000D03*
X152320000Y-116180000D03*
X149780000Y-116180000D03*
X152320000Y-113640000D03*
X149780000Y-113640000D03*
X152320000Y-111100000D03*
X149780000Y-111100000D03*
X185340000Y-128880000D03*
X182800000Y-128880000D03*
X185340000Y-126340000D03*
X182800000Y-126340000D03*
X185340000Y-123800000D03*
X182800000Y-123800000D03*
X185340000Y-121260000D03*
X182800000Y-121260000D03*
X185340000Y-118720000D03*
X182800000Y-118720000D03*
X185340000Y-116180000D03*
X182800000Y-116180000D03*
X185340000Y-113640000D03*
X182800000Y-113640000D03*
X185340000Y-111100000D03*
X182800000Y-111100000D03*
X180260000Y-111100000D03*
X180260000Y-113640000D03*
X177720000Y-111100000D03*
X177720000Y-113640000D03*
X175180000Y-111100000D03*
X175180000Y-113640000D03*
X149780000Y-159360000D03*
X152320000Y-159360000D03*
X162480000Y-111100000D03*
X167560000Y-113640000D03*
X165020000Y-111100000D03*
X162480000Y-113640000D03*
X149780000Y-151740000D03*
X152320000Y-149200000D03*
X165020000Y-113640000D03*
X149780000Y-149200000D03*
X149780000Y-161900000D03*
X152320000Y-161900000D03*
%TD*%
D37*
%TO.C,JP1*%
X132250000Y-95750000D03*
D38*
X132250000Y-97200000D03*
%TD*%
D43*
%TO.C,R4*%
X124500000Y-89500000D03*
X124500000Y-91325000D03*
%TD*%
D41*
%TO.C,JP16*%
X133375000Y-59600000D03*
D42*
X134825000Y-59600000D03*
%TD*%
D37*
%TO.C,JP8*%
X141200000Y-95750000D03*
D38*
X141200000Y-97200000D03*
%TD*%
D37*
%TO.C,JP9*%
X144000000Y-95750000D03*
D38*
X144000000Y-97200000D03*
%TD*%
D37*
%TO.C,JP5*%
X149500000Y-95800000D03*
D38*
X149500000Y-97250000D03*
%TD*%
D37*
%TO.C,JP2*%
X129500000Y-95750000D03*
D38*
X129500000Y-97200000D03*
%TD*%
%TO.C,JP7*%
X138000000Y-97200000D03*
D37*
X138000000Y-95750000D03*
%TD*%
D41*
%TO.C,JP17*%
X133450000Y-57000000D03*
D42*
X134900000Y-57000000D03*
%TD*%
D33*
%TO.C,JP20*%
X111500000Y-88725000D03*
D34*
X111500000Y-87275000D03*
%TD*%
D33*
%TO.C,JP21*%
X117000000Y-88475000D03*
D34*
X117000000Y-87025000D03*
%TD*%
D41*
%TO.C,JP18*%
X133350000Y-54400000D03*
D42*
X134800000Y-54400000D03*
%TD*%
%LPD*%
M02*
