%TF.GenerationSoftware,KiCad,Pcbnew,7.0.2*%
%TF.CreationDate,2024-02-29T19:16:00+01:00*%
%TF.ProjectId,carte actionneur,63617274-6520-4616-9374-696f6e6e6575,rev?*%
%TF.SameCoordinates,Original*%
%TF.FileFunction,Soldermask,Bot*%
%TF.FilePolarity,Negative*%
%FSLAX46Y46*%
G04 Gerber Fmt 4.6, Leading zero omitted, Abs format (unit mm)*
G04 Created by KiCad (PCBNEW 7.0.2) date 2024-02-29 19:16:00*
%MOMM*%
%LPD*%
G01*
G04 APERTURE LIST*
G04 Aperture macros list*
%AMRoundRect*
0 Rectangle with rounded corners*
0 $1 Rounding radius*
0 $2 $3 $4 $5 $6 $7 $8 $9 X,Y pos of 4 corners*
0 Add a 4 corners polygon primitive as box body*
4,1,4,$2,$3,$4,$5,$6,$7,$8,$9,$2,$3,0*
0 Add four circle primitives for the rounded corners*
1,1,$1+$1,$2,$3*
1,1,$1+$1,$4,$5*
1,1,$1+$1,$6,$7*
1,1,$1+$1,$8,$9*
0 Add four rect primitives between the rounded corners*
20,1,$1+$1,$2,$3,$4,$5,0*
20,1,$1+$1,$4,$5,$6,$7,0*
20,1,$1+$1,$6,$7,$8,$9,0*
20,1,$1+$1,$8,$9,$2,$3,0*%
%AMFreePoly0*
4,1,6,1.000000,0.000000,0.500000,-0.750000,-0.500000,-0.750000,-0.500000,0.750000,0.500000,0.750000,1.000000,0.000000,1.000000,0.000000,$1*%
%AMFreePoly1*
4,1,6,0.500000,-0.750000,-0.650000,-0.750000,-0.150000,0.000000,-0.650000,0.750000,0.500000,0.750000,0.500000,-0.750000,0.500000,-0.750000,$1*%
G04 Aperture macros list end*
%ADD10C,2.550000*%
%ADD11R,2.550000X2.550000*%
%ADD12R,1.700000X1.700000*%
%ADD13O,1.700000X1.700000*%
%ADD14RoundRect,0.250000X-0.750000X0.600000X-0.750000X-0.600000X0.750000X-0.600000X0.750000X0.600000X0*%
%ADD15O,2.000000X1.700000*%
%ADD16C,0.800000*%
%ADD17C,6.400000*%
%ADD18C,1.600000*%
%ADD19R,1.600000X1.600000*%
%ADD20RoundRect,0.250000X-0.725000X0.600000X-0.725000X-0.600000X0.725000X-0.600000X0.725000X0.600000X0*%
%ADD21O,1.950000X1.700000*%
%ADD22O,1.600000X1.600000*%
%ADD23C,2.540000*%
%ADD24R,2.540000X2.540000*%
%ADD25RoundRect,0.225000X0.375000X-0.225000X0.375000X0.225000X-0.375000X0.225000X-0.375000X-0.225000X0*%
%ADD26R,0.802000X1.505000*%
%ADD27R,3.502000X2.613000*%
%ADD28RoundRect,0.250000X-0.475000X0.250000X-0.475000X-0.250000X0.475000X-0.250000X0.475000X0.250000X0*%
%ADD29RoundRect,0.250000X0.475000X-0.250000X0.475000X0.250000X-0.475000X0.250000X-0.475000X-0.250000X0*%
%ADD30FreePoly0,90.000000*%
%ADD31FreePoly1,90.000000*%
%ADD32RoundRect,0.250000X0.850000X0.350000X-0.850000X0.350000X-0.850000X-0.350000X0.850000X-0.350000X0*%
%ADD33RoundRect,0.249997X2.950003X2.650003X-2.950003X2.650003X-2.950003X-2.650003X2.950003X-2.650003X0*%
%ADD34FreePoly0,270.000000*%
%ADD35FreePoly1,270.000000*%
%ADD36RoundRect,0.250000X-0.450000X0.350000X-0.450000X-0.350000X0.450000X-0.350000X0.450000X0.350000X0*%
%ADD37RoundRect,0.250000X0.450000X-0.262500X0.450000X0.262500X-0.450000X0.262500X-0.450000X-0.262500X0*%
%ADD38FreePoly0,0.000000*%
%ADD39FreePoly1,0.000000*%
%ADD40RoundRect,0.250000X-0.450000X0.262500X-0.450000X-0.262500X0.450000X-0.262500X0.450000X0.262500X0*%
%ADD41RoundRect,0.225000X-0.225000X-0.375000X0.225000X-0.375000X0.225000X0.375000X-0.225000X0.375000X0*%
%ADD42C,1.880400*%
G04 APERTURE END LIST*
D10*
%TO.C,J2*%
X111200000Y-144000000D03*
D11*
X111200000Y-149080000D03*
%TD*%
D12*
%TO.C,J12*%
X115759810Y-162100000D03*
D13*
X118299810Y-162100000D03*
%TD*%
D14*
%TO.C,J24*%
X107000000Y-73500000D03*
D15*
X107000000Y-76000000D03*
%TD*%
D12*
%TO.C,J18*%
X122799810Y-157900000D03*
D13*
X125339810Y-157900000D03*
%TD*%
D16*
%TO.C,H4*%
X196600000Y-167000000D03*
X197302944Y-165302944D03*
X197302944Y-168697056D03*
X199000000Y-164600000D03*
D17*
X199000000Y-167000000D03*
D16*
X199000000Y-169400000D03*
X200697056Y-165302944D03*
X200697056Y-168697056D03*
X201400000Y-167000000D03*
%TD*%
D12*
%TO.C,J13*%
X129959810Y-162100000D03*
D13*
X132499810Y-162100000D03*
%TD*%
D18*
%TO.C,C8*%
X139600000Y-127647349D03*
D19*
X139600000Y-124147349D03*
%TD*%
%TO.C,C9*%
X139600000Y-117500000D03*
D18*
X139600000Y-114000000D03*
%TD*%
D12*
%TO.C,J10*%
X141320000Y-171200000D03*
D13*
X143860000Y-171200000D03*
X146400000Y-171200000D03*
%TD*%
D16*
%TO.C,H1*%
X113400000Y-49000000D03*
X112697056Y-50697056D03*
X112697056Y-47302944D03*
X111000000Y-51400000D03*
D17*
X111000000Y-49000000D03*
D16*
X111000000Y-46600000D03*
X109302944Y-50697056D03*
X109302944Y-47302944D03*
X108600000Y-49000000D03*
%TD*%
D20*
%TO.C,J19*%
X107000000Y-114500000D03*
D21*
X107000000Y-117000000D03*
X107000000Y-119500000D03*
X107000000Y-122000000D03*
%TD*%
D14*
%TO.C,J23*%
X107000000Y-64500000D03*
D15*
X107000000Y-67000000D03*
%TD*%
D19*
%TO.C,A3*%
X139740000Y-137500000D03*
D22*
X137200000Y-137500000D03*
X134660000Y-137500000D03*
X132120000Y-137500000D03*
X129580000Y-137500000D03*
X127040000Y-137500000D03*
X124500000Y-137500000D03*
X121960000Y-137500000D03*
X121960000Y-150200000D03*
X124500000Y-150200000D03*
X127040000Y-150200000D03*
X129580000Y-150200000D03*
X132120000Y-150200000D03*
X134660000Y-150200000D03*
X137200000Y-150200000D03*
X139740000Y-150200000D03*
%TD*%
D23*
%TO.C,U4*%
X186110000Y-54680000D03*
X203890000Y-54680000D03*
X203890000Y-95320000D03*
D24*
X186110000Y-95320000D03*
%TD*%
D19*
%TO.C,A2*%
X133030000Y-102050000D03*
D22*
X130490000Y-102050000D03*
X127950000Y-102050000D03*
X125410000Y-102050000D03*
X122870000Y-102050000D03*
X120330000Y-102050000D03*
X117790000Y-102050000D03*
X115250000Y-102050000D03*
X115250000Y-114750000D03*
X117790000Y-114750000D03*
X120330000Y-114750000D03*
X122870000Y-114750000D03*
X125410000Y-114750000D03*
X127950000Y-114750000D03*
X130490000Y-114750000D03*
X133030000Y-114750000D03*
%TD*%
D12*
%TO.C,J25*%
X159420000Y-171400000D03*
D13*
X161960000Y-171400000D03*
X164500000Y-171400000D03*
%TD*%
D24*
%TO.C,U2*%
X161110000Y-95320000D03*
D23*
X178890000Y-95320000D03*
X178890000Y-54680000D03*
X161110000Y-54680000D03*
%TD*%
D14*
%TO.C,J11*%
X107000000Y-91500000D03*
D15*
X107000000Y-94000000D03*
%TD*%
D20*
%TO.C,J17*%
X107000000Y-100500000D03*
D21*
X107000000Y-103000000D03*
X107000000Y-105500000D03*
X107000000Y-108000000D03*
%TD*%
D12*
%TO.C,J9*%
X168375000Y-171600000D03*
D13*
X170915000Y-171600000D03*
X173455000Y-171600000D03*
%TD*%
D12*
%TO.C,J20*%
X115999810Y-157700000D03*
D13*
X118539810Y-157700000D03*
%TD*%
D19*
%TO.C,C7*%
X142000000Y-108100000D03*
D18*
X142000000Y-104600000D03*
%TD*%
D12*
%TO.C,J26*%
X150420000Y-171200000D03*
D13*
X152960000Y-171200000D03*
X155500000Y-171200000D03*
%TD*%
%TO.C,J6*%
X146520000Y-166500000D03*
X149060000Y-166500000D03*
X151600000Y-166500000D03*
X154140000Y-166500000D03*
X156680000Y-166500000D03*
X159220000Y-166500000D03*
X161760000Y-166500000D03*
D12*
X164300000Y-166500000D03*
%TD*%
%TO.C,J5*%
X145300000Y-134800000D03*
D13*
X145300000Y-137340000D03*
X145300000Y-139880000D03*
X145300000Y-142420000D03*
%TD*%
%TO.C,J8*%
X119200000Y-172600000D03*
X116660000Y-172600000D03*
D12*
X114120000Y-172600000D03*
%TD*%
D19*
%TO.C,A1*%
X133030000Y-120000000D03*
D22*
X130490000Y-120000000D03*
X127950000Y-120000000D03*
X125410000Y-120000000D03*
X122870000Y-120000000D03*
X120330000Y-120000000D03*
X117790000Y-120000000D03*
X115250000Y-120000000D03*
X115250000Y-132700000D03*
X117790000Y-132700000D03*
X120330000Y-132700000D03*
X122870000Y-132700000D03*
X125410000Y-132700000D03*
X127950000Y-132700000D03*
X130490000Y-132700000D03*
X133030000Y-132700000D03*
%TD*%
D13*
%TO.C,J7*%
X128100000Y-171400000D03*
X125560000Y-171400000D03*
D12*
X123020000Y-171400000D03*
%TD*%
D13*
%TO.C,J21*%
X168860000Y-166600000D03*
X171400000Y-166600000D03*
X173940000Y-166600000D03*
X176480000Y-166600000D03*
X179020000Y-166600000D03*
X181560000Y-166600000D03*
X184100000Y-166600000D03*
D12*
X186640000Y-166600000D03*
%TD*%
%TO.C,J14*%
X130339810Y-158100000D03*
D13*
X132879810Y-158100000D03*
%TD*%
D14*
%TO.C,J22*%
X107200000Y-55600000D03*
D15*
X107200000Y-58100000D03*
%TD*%
D16*
%TO.C,H3*%
X108600000Y-167000000D03*
X109302944Y-165302944D03*
X109302944Y-168697056D03*
X111000000Y-164600000D03*
D17*
X111000000Y-167000000D03*
D16*
X111000000Y-169400000D03*
X112697056Y-165302944D03*
X112697056Y-168697056D03*
X113400000Y-167000000D03*
%TD*%
D14*
%TO.C,J15*%
X107000000Y-82500000D03*
D15*
X107000000Y-85000000D03*
%TD*%
D12*
%TO.C,J27*%
X177900000Y-171100000D03*
D13*
X180440000Y-171100000D03*
X182980000Y-171100000D03*
%TD*%
D12*
%TO.C,J16*%
X123299810Y-162100000D03*
D13*
X125839810Y-162100000D03*
%TD*%
D12*
%TO.C,J28*%
X116860000Y-166100000D03*
D13*
X119400000Y-166100000D03*
%TD*%
D20*
%TO.C,J3*%
X107000000Y-128500000D03*
D21*
X107000000Y-131000000D03*
X107000000Y-133500000D03*
X107000000Y-136000000D03*
%TD*%
D12*
%TO.C,J4*%
X123460000Y-166200000D03*
D13*
X126000000Y-166200000D03*
%TD*%
D12*
%TO.C,J1*%
X132220000Y-171200000D03*
D13*
X134760000Y-171200000D03*
X137300000Y-171200000D03*
%TD*%
D16*
%TO.C,H2*%
X196600000Y-49000000D03*
X197302944Y-47302944D03*
X197302944Y-50697056D03*
X199000000Y-46600000D03*
D17*
X199000000Y-49000000D03*
D16*
X199000000Y-51400000D03*
X200697056Y-47302944D03*
X200697056Y-50697056D03*
X201400000Y-49000000D03*
%TD*%
D24*
%TO.C,U5*%
X136000000Y-89640000D03*
D23*
X153780000Y-89640000D03*
X153780000Y-49000000D03*
X136000000Y-49000000D03*
%TD*%
D25*
%TO.C,D4*%
X111600000Y-67950000D03*
X111600000Y-64650000D03*
%TD*%
D26*
%TO.C,U7*%
X135190000Y-78250000D03*
X136460000Y-78250000D03*
X137730000Y-78250000D03*
X139000000Y-78250000D03*
X139000000Y-83245000D03*
X137730000Y-83245000D03*
X136460000Y-83245000D03*
X135190000Y-83245000D03*
D27*
X137095000Y-80747500D03*
%TD*%
D28*
%TO.C,C3*%
X127000000Y-88500000D03*
X127000000Y-90400000D03*
%TD*%
D29*
%TO.C,C5*%
X153250000Y-84500000D03*
X153250000Y-82600000D03*
%TD*%
D30*
%TO.C,JP24*%
X144500000Y-74750000D03*
D31*
X144500000Y-73300000D03*
%TD*%
D30*
%TO.C,JP22*%
X141500000Y-74750000D03*
D31*
X141500000Y-73300000D03*
%TD*%
D32*
%TO.C,Q3*%
X124325000Y-62945000D03*
D33*
X118025000Y-65225000D03*
D32*
X124325000Y-67505000D03*
%TD*%
D34*
%TO.C,JP6*%
X152250000Y-95750000D03*
D35*
X152250000Y-97200000D03*
%TD*%
D29*
%TO.C,C6*%
X138750000Y-75400000D03*
X138750000Y-73500000D03*
%TD*%
D36*
%TO.C,R1*%
X115000000Y-147200000D03*
X115000000Y-149200000D03*
%TD*%
D29*
%TO.C,C4*%
X119250000Y-85900000D03*
X119250000Y-84000000D03*
%TD*%
D37*
%TO.C,R5*%
X124500000Y-95912500D03*
X124500000Y-94087500D03*
%TD*%
D38*
%TO.C,JP15*%
X133350000Y-68000000D03*
D39*
X134800000Y-68000000D03*
%TD*%
D40*
%TO.C,R6*%
X159500000Y-77337500D03*
X159500000Y-79162500D03*
%TD*%
D38*
%TO.C,JP13*%
X133700000Y-71200000D03*
D39*
X135150000Y-71200000D03*
%TD*%
D30*
%TO.C,JP23*%
X147500000Y-74725000D03*
D31*
X147500000Y-73275000D03*
%TD*%
D38*
%TO.C,JP14*%
X133350000Y-64100000D03*
D39*
X134800000Y-64100000D03*
%TD*%
D41*
%TO.C,D1*%
X108850000Y-160500000D03*
X112150000Y-160500000D03*
%TD*%
D30*
%TO.C,JP19*%
X114250000Y-88700000D03*
D31*
X114250000Y-87250000D03*
%TD*%
D32*
%TO.C,Q1*%
X112625000Y-157755000D03*
D33*
X106325000Y-155475000D03*
D32*
X112625000Y-153195000D03*
%TD*%
D40*
%TO.C,R10*%
X128000000Y-63587500D03*
X128000000Y-65412500D03*
%TD*%
D32*
%TO.C,Q2*%
X125300000Y-50740000D03*
D33*
X119000000Y-53020000D03*
D32*
X125300000Y-55300000D03*
%TD*%
D40*
%TO.C,R9*%
X128800000Y-51887500D03*
X128800000Y-53712500D03*
%TD*%
D34*
%TO.C,JP4*%
X146750000Y-95750000D03*
D35*
X146750000Y-97200000D03*
%TD*%
D25*
%TO.C,D3*%
X112400000Y-58150000D03*
X112400000Y-54850000D03*
%TD*%
D34*
%TO.C,JP3*%
X135000000Y-95750000D03*
D35*
X135000000Y-97200000D03*
%TD*%
D26*
%TO.C,U3*%
X117940000Y-90500000D03*
X119210000Y-90500000D03*
X120480000Y-90500000D03*
X121750000Y-90500000D03*
X121750000Y-95495000D03*
X120480000Y-95495000D03*
X119210000Y-95495000D03*
X117940000Y-95495000D03*
D27*
X119845000Y-92997500D03*
%TD*%
D37*
%TO.C,R7*%
X149750000Y-84325000D03*
X149750000Y-82500000D03*
%TD*%
D42*
%TO.C,U1*%
X149780000Y-154280000D03*
X152320000Y-154280000D03*
X149780000Y-156820000D03*
X152320000Y-156820000D03*
X167560000Y-111100000D03*
X185340000Y-149200000D03*
X182800000Y-149200000D03*
X185340000Y-146660000D03*
X182800000Y-146660000D03*
X185340000Y-144120000D03*
X182800000Y-144120000D03*
X185340000Y-141580000D03*
X182800000Y-141580000D03*
X185340000Y-139040000D03*
X182800000Y-139040000D03*
X185340000Y-136500000D03*
X182800000Y-136500000D03*
X185340000Y-133960000D03*
X182800000Y-133960000D03*
X185340000Y-131420000D03*
X182800000Y-131420000D03*
X152320000Y-151740000D03*
X152320000Y-146660000D03*
X149780000Y-146660000D03*
X152320000Y-144120000D03*
X149780000Y-144120000D03*
X152320000Y-141580000D03*
X149780000Y-141580000D03*
X152320000Y-139040000D03*
X149780000Y-139040000D03*
X152320000Y-136500000D03*
X149780000Y-136500000D03*
X152320000Y-133960000D03*
X149780000Y-133960000D03*
X152320000Y-131420000D03*
X149780000Y-131420000D03*
X152320000Y-128880000D03*
X149780000Y-128880000D03*
X152320000Y-126340000D03*
X149780000Y-126340000D03*
X152320000Y-123800000D03*
X149780000Y-123800000D03*
X152320000Y-121260000D03*
X149780000Y-121260000D03*
X152320000Y-118720000D03*
X149780000Y-118720000D03*
X152320000Y-116180000D03*
X149780000Y-116180000D03*
X152320000Y-113640000D03*
X149780000Y-113640000D03*
X152320000Y-111100000D03*
X149780000Y-111100000D03*
X185340000Y-128880000D03*
X182800000Y-128880000D03*
X185340000Y-126340000D03*
X182800000Y-126340000D03*
X185340000Y-123800000D03*
X182800000Y-123800000D03*
X185340000Y-121260000D03*
X182800000Y-121260000D03*
X185340000Y-118720000D03*
X182800000Y-118720000D03*
X185340000Y-116180000D03*
X182800000Y-116180000D03*
X185340000Y-113640000D03*
X182800000Y-113640000D03*
X185340000Y-111100000D03*
X182800000Y-111100000D03*
X180260000Y-111100000D03*
X180260000Y-113640000D03*
X177720000Y-111100000D03*
X177720000Y-113640000D03*
X175180000Y-111100000D03*
X175180000Y-113640000D03*
X149780000Y-159360000D03*
X152320000Y-159360000D03*
X162480000Y-111100000D03*
X167560000Y-113640000D03*
X165020000Y-111100000D03*
X162480000Y-113640000D03*
X149780000Y-151740000D03*
X152320000Y-149200000D03*
X165020000Y-113640000D03*
X149780000Y-149200000D03*
X149780000Y-161900000D03*
X152320000Y-161900000D03*
%TD*%
D34*
%TO.C,JP1*%
X132250000Y-95750000D03*
D35*
X132250000Y-97200000D03*
%TD*%
D40*
%TO.C,R4*%
X124500000Y-89500000D03*
X124500000Y-91325000D03*
%TD*%
D38*
%TO.C,JP16*%
X133375000Y-59600000D03*
D39*
X134825000Y-59600000D03*
%TD*%
D34*
%TO.C,JP8*%
X141200000Y-95750000D03*
D35*
X141200000Y-97200000D03*
%TD*%
D34*
%TO.C,JP9*%
X144000000Y-95750000D03*
D35*
X144000000Y-97200000D03*
%TD*%
D34*
%TO.C,JP5*%
X149500000Y-95800000D03*
D35*
X149500000Y-97250000D03*
%TD*%
D34*
%TO.C,JP2*%
X129500000Y-95750000D03*
D35*
X129500000Y-97200000D03*
%TD*%
%TO.C,JP7*%
X138000000Y-97200000D03*
D34*
X138000000Y-95750000D03*
%TD*%
D38*
%TO.C,JP17*%
X133450000Y-57000000D03*
D39*
X134900000Y-57000000D03*
%TD*%
D30*
%TO.C,JP20*%
X111500000Y-88725000D03*
D31*
X111500000Y-87275000D03*
%TD*%
D30*
%TO.C,JP21*%
X117000000Y-88475000D03*
D31*
X117000000Y-87025000D03*
%TD*%
D38*
%TO.C,JP18*%
X133350000Y-54400000D03*
D39*
X134800000Y-54400000D03*
%TD*%
M02*
