M48
; DRILL file {KiCad 7.0.2} date Thu Feb 29 19:16:03 2024
; FORMAT={-:-/ absolute / inch / decimal}
; #@! TF.CreationDate,2024-02-29T19:16:03+01:00
; #@! TF.GenerationSoftware,Kicad,Pcbnew,7.0.2
; #@! TF.FileFunction,Plated,1,2,PTH
FMAT,2
INCH
; #@! TA.AperFunction,Plated,PTH,ViaDrill
T1C0.0157
; #@! TA.AperFunction,Plated,PTH,ComponentDrill
T2C0.0197
; #@! TA.AperFunction,Plated,PTH,ComponentDrill
T3C0.0315
; #@! TA.AperFunction,Plated,PTH,ComponentDrill
T4C0.0374
; #@! TA.AperFunction,Plated,PTH,ComponentDrill
T5C0.0394
; #@! TA.AperFunction,Plated,PTH,ComponentDrill
T6C0.0669
; #@! TA.AperFunction,Plated,PTH,ComponentDrill
T7C0.1260
%
G90
G05
T1
X4.3898Y-3.378
X4.4488Y-3.8306
X4.4606Y-3.3661
X4.5354Y-3.9055
X4.5433Y-3.378
X4.5512Y-4.9134
X4.7559Y-4.4016
X4.9016Y-3.8484
X4.9843Y-3.1063
X5.0984Y-3.4941
X5.0984Y-3.6713
X5.2323Y-3.0551
X5.2402Y-5.6378
X5.2441Y-2.874
X5.2441Y-4.8346
X5.3071Y-5.2687
X5.7244Y-3.8976
X6.0591Y-5.6772
X6.1614Y-2.9528
X6.2697Y-3.4547
X6.5256Y-3.0709
X7.7283Y-4.2283
X7.7283Y-4.3543
T2
X4.2756Y-1.9291
X4.2756Y-6.5748
X4.3033Y-1.8623
X4.3033Y-1.9959
X4.3033Y-6.508
X4.3033Y-6.6416
X4.3701Y-1.8346
X4.3701Y-2.0236
X4.3701Y-6.4803
X4.3701Y-6.6693
X4.4369Y-1.8623
X4.4369Y-1.9959
X4.4369Y-6.508
X4.4369Y-6.6416
X4.4646Y-1.9291
X4.4646Y-6.5748
X7.7402Y-1.9291
X7.7402Y-6.5748
X7.7678Y-1.8623
X7.7678Y-1.9959
X7.7678Y-6.508
X7.7678Y-6.6416
X7.8346Y-1.8346
X7.8346Y-2.0236
X7.8346Y-6.4803
X7.8346Y-6.6693
X7.9015Y-1.8623
X7.9015Y-1.9959
X7.9015Y-6.508
X7.9015Y-6.6416
X7.9291Y-1.9291
X7.9291Y-6.5748
T3
X4.5374Y-4.0177
X4.5374Y-4.5177
X4.5374Y-4.7244
X4.5374Y-5.2244
X4.6374Y-4.0177
X4.6374Y-4.5177
X4.6374Y-4.7244
X4.6374Y-5.2244
X4.7374Y-4.0177
X4.7374Y-4.5177
X4.7374Y-4.7244
X4.7374Y-5.2244
X4.8016Y-5.4134
X4.8016Y-5.9134
X4.8374Y-4.0177
X4.8374Y-4.5177
X4.8374Y-4.7244
X4.8374Y-5.2244
X4.9016Y-5.4134
X4.9016Y-5.9134
X4.9374Y-4.0177
X4.9374Y-4.5177
X4.9374Y-4.7244
X4.9374Y-5.2244
X5.0016Y-5.4134
X5.0016Y-5.9134
X5.0374Y-4.0177
X5.0374Y-4.5177
X5.0374Y-4.7244
X5.0374Y-5.2244
X5.1016Y-5.4134
X5.1016Y-5.9134
X5.1374Y-4.0177
X5.1374Y-4.5177
X5.1374Y-4.7244
X5.1374Y-5.2244
X5.2016Y-5.4134
X5.2016Y-5.9134
X5.2374Y-4.0177
X5.2374Y-4.5177
X5.2374Y-4.7244
X5.2374Y-5.2244
X5.3016Y-5.4134
X5.3016Y-5.9134
X5.4016Y-5.4134
X5.4016Y-5.9134
X5.4961Y-4.4882
X5.4961Y-4.626
X5.4961Y-4.8877
X5.4961Y-5.0255
X5.5016Y-5.4134
X5.5016Y-5.9134
X5.5906Y-4.1181
X5.5906Y-4.2559
X5.8969Y-4.374
X5.8969Y-4.474
X5.8969Y-4.574
X5.8969Y-4.674
X5.8969Y-4.774
X5.8969Y-4.874
X5.8969Y-4.974
X5.8969Y-5.074
X5.8969Y-5.174
X5.8969Y-5.274
X5.8969Y-5.374
X5.8969Y-5.474
X5.8969Y-5.574
X5.8969Y-5.674
X5.8969Y-5.774
X5.8969Y-5.874
X5.8969Y-5.974
X5.8969Y-6.074
X5.8969Y-6.174
X5.8969Y-6.274
X5.8969Y-6.374
X5.9969Y-4.374
X5.9969Y-4.474
X5.9969Y-4.574
X5.9969Y-4.674
X5.9969Y-4.774
X5.9969Y-4.874
X5.9969Y-4.974
X5.9969Y-5.074
X5.9969Y-5.174
X5.9969Y-5.274
X5.9969Y-5.374
X5.9969Y-5.474
X5.9969Y-5.574
X5.9969Y-5.674
X5.9969Y-5.774
X5.9969Y-5.874
X5.9969Y-5.974
X5.9969Y-6.074
X5.9969Y-6.174
X5.9969Y-6.274
X5.9969Y-6.374
X6.3969Y-4.374
X6.3969Y-4.474
X6.4969Y-4.374
X6.4969Y-4.474
X6.5969Y-4.374
X6.5969Y-4.474
X6.8969Y-4.374
X6.8969Y-4.474
X6.9969Y-4.374
X6.9969Y-4.474
X7.0969Y-4.374
X7.0969Y-4.474
X7.1969Y-4.374
X7.1969Y-4.474
X7.1969Y-4.574
X7.1969Y-4.674
X7.1969Y-4.774
X7.1969Y-4.874
X7.1969Y-4.974
X7.1969Y-5.074
X7.1969Y-5.174
X7.1969Y-5.274
X7.1969Y-5.374
X7.1969Y-5.474
X7.1969Y-5.574
X7.1969Y-5.674
X7.1969Y-5.774
X7.1969Y-5.874
X7.2969Y-4.374
X7.2969Y-4.474
X7.2969Y-4.574
X7.2969Y-4.674
X7.2969Y-4.774
X7.2969Y-4.874
X7.2969Y-4.974
X7.2969Y-5.074
X7.2969Y-5.174
X7.2969Y-5.274
X7.2969Y-5.374
X7.2969Y-5.474
X7.2969Y-5.574
X7.2969Y-5.674
X7.2969Y-5.774
X7.2969Y-5.874
T4
X4.2126Y-3.9567
X4.2126Y-4.0551
X4.2126Y-4.1535
X4.2126Y-4.252
X4.2126Y-4.5079
X4.2126Y-4.6063
X4.2126Y-4.7047
X4.2126Y-4.8031
X4.2126Y-5.0591
X4.2126Y-5.1575
X4.2126Y-5.2559
X4.2126Y-5.3543
T5
X4.2126Y-2.5394
X4.2126Y-2.6378
X4.2126Y-2.8937
X4.2126Y-2.9921
X4.2126Y-3.248
X4.2126Y-3.3465
X4.2126Y-3.6024
X4.2126Y-3.7008
X4.2205Y-2.189
X4.2205Y-2.2874
X4.4929Y-6.7953
X4.5575Y-6.3819
X4.5669Y-6.2087
X4.5929Y-6.7953
X4.6008Y-6.5394
X4.6575Y-6.3819
X4.6669Y-6.2087
X4.6929Y-6.7953
X4.7008Y-6.5394
X4.8346Y-6.2165
X4.8433Y-6.748
X4.8543Y-6.3819
X4.8606Y-6.5433
X4.9346Y-6.2165
X4.9433Y-6.748
X4.9543Y-6.3819
X4.9606Y-6.5433
X5.0433Y-6.748
X5.1165Y-6.3819
X5.1315Y-6.2244
X5.2055Y-6.7402
X5.2165Y-6.3819
X5.2315Y-6.2244
X5.3055Y-6.7402
X5.3543Y-1.9291
X5.3543Y-3.5291
X5.4055Y-6.7402
X5.5638Y-6.7402
X5.6638Y-6.7402
X5.7205Y-5.3071
X5.7205Y-5.4071
X5.7205Y-5.5071
X5.7205Y-5.6071
X5.7638Y-6.7402
X5.7685Y-6.5551
X5.8685Y-6.5551
X5.922Y-6.7402
X5.9685Y-6.5551
X6.022Y-6.7402
X6.0543Y-1.9291
X6.0543Y-3.5291
X6.0685Y-6.5551
X6.122Y-6.7402
X6.1685Y-6.5551
X6.2685Y-6.5551
X6.2764Y-6.748
X6.3429Y-2.1528
X6.3429Y-3.7528
X6.3685Y-6.5551
X6.3764Y-6.748
X6.4685Y-6.5551
X6.4764Y-6.748
X6.6289Y-6.7559
X6.648Y-6.5591
X6.7289Y-6.7559
X6.748Y-6.5591
X6.8289Y-6.7559
X6.848Y-6.5591
X6.948Y-6.5591
X7.0039Y-6.7362
X7.0429Y-2.1528
X7.0429Y-3.7528
X7.048Y-6.5591
X7.1039Y-6.7362
X7.148Y-6.5591
X7.2039Y-6.7362
X7.248Y-6.5591
X7.3272Y-2.1528
X7.3272Y-3.7528
X7.348Y-6.5591
X8.0272Y-2.1528
X8.0272Y-3.7528
T6
X4.378Y-5.6693
X4.378Y-5.8693
T7
X4.3701Y-1.9291
X4.3701Y-6.5748
X7.8346Y-1.9291
X7.8346Y-6.5748
T0
M30
