%TF.GenerationSoftware,KiCad,Pcbnew,7.0.2*%
%TF.CreationDate,2024-02-29T19:16:00+01:00*%
%TF.ProjectId,carte actionneur,63617274-6520-4616-9374-696f6e6e6575,rev?*%
%TF.SameCoordinates,Original*%
%TF.FileFunction,Paste,Bot*%
%TF.FilePolarity,Positive*%
%FSLAX46Y46*%
G04 Gerber Fmt 4.6, Leading zero omitted, Abs format (unit mm)*
G04 Created by KiCad (PCBNEW 7.0.2) date 2024-02-29 19:16:00*
%MOMM*%
%LPD*%
G01*
G04 APERTURE LIST*
G04 Aperture macros list*
%AMRoundRect*
0 Rectangle with rounded corners*
0 $1 Rounding radius*
0 $2 $3 $4 $5 $6 $7 $8 $9 X,Y pos of 4 corners*
0 Add a 4 corners polygon primitive as box body*
4,1,4,$2,$3,$4,$5,$6,$7,$8,$9,$2,$3,0*
0 Add four circle primitives for the rounded corners*
1,1,$1+$1,$2,$3*
1,1,$1+$1,$4,$5*
1,1,$1+$1,$6,$7*
1,1,$1+$1,$8,$9*
0 Add four rect primitives between the rounded corners*
20,1,$1+$1,$2,$3,$4,$5,0*
20,1,$1+$1,$4,$5,$6,$7,0*
20,1,$1+$1,$6,$7,$8,$9,0*
20,1,$1+$1,$8,$9,$2,$3,0*%
G04 Aperture macros list end*
%ADD10RoundRect,0.225000X0.375000X-0.225000X0.375000X0.225000X-0.375000X0.225000X-0.375000X-0.225000X0*%
%ADD11R,0.802000X1.505000*%
%ADD12R,2.101200X1.567800*%
%ADD13RoundRect,0.250000X-0.475000X0.250000X-0.475000X-0.250000X0.475000X-0.250000X0.475000X0.250000X0*%
%ADD14RoundRect,0.250000X0.475000X-0.250000X0.475000X0.250000X-0.475000X0.250000X-0.475000X-0.250000X0*%
%ADD15RoundRect,0.250000X0.850000X0.350000X-0.850000X0.350000X-0.850000X-0.350000X0.850000X-0.350000X0*%
%ADD16RoundRect,0.250000X1.275000X1.125000X-1.275000X1.125000X-1.275000X-1.125000X1.275000X-1.125000X0*%
%ADD17RoundRect,0.250000X-0.450000X0.350000X-0.450000X-0.350000X0.450000X-0.350000X0.450000X0.350000X0*%
%ADD18RoundRect,0.250000X0.450000X-0.262500X0.450000X0.262500X-0.450000X0.262500X-0.450000X-0.262500X0*%
%ADD19RoundRect,0.250000X-0.450000X0.262500X-0.450000X-0.262500X0.450000X-0.262500X0.450000X0.262500X0*%
%ADD20RoundRect,0.225000X-0.225000X-0.375000X0.225000X-0.375000X0.225000X0.375000X-0.225000X0.375000X0*%
G04 APERTURE END LIST*
D10*
%TO.C,D4*%
X111600000Y-67950000D03*
X111600000Y-64650000D03*
%TD*%
D11*
%TO.C,U7*%
X135190000Y-78250000D03*
X136460000Y-78250000D03*
X137730000Y-78250000D03*
X139000000Y-78250000D03*
X139000000Y-83245000D03*
X137730000Y-83245000D03*
X136460000Y-83245000D03*
X135190000Y-83245000D03*
D12*
X137095000Y-80747500D03*
%TD*%
D13*
%TO.C,C3*%
X127000000Y-88500000D03*
X127000000Y-90400000D03*
%TD*%
D14*
%TO.C,C5*%
X153250000Y-84500000D03*
X153250000Y-82600000D03*
%TD*%
D15*
%TO.C,Q3*%
X124325000Y-62945000D03*
D16*
X119700000Y-66750000D03*
X119700000Y-63700000D03*
X116350000Y-66750000D03*
X116350000Y-63700000D03*
D15*
X124325000Y-67505000D03*
%TD*%
D14*
%TO.C,C6*%
X138750000Y-75400000D03*
X138750000Y-73500000D03*
%TD*%
D17*
%TO.C,R1*%
X115000000Y-147200000D03*
X115000000Y-149200000D03*
%TD*%
D14*
%TO.C,C4*%
X119250000Y-85900000D03*
X119250000Y-84000000D03*
%TD*%
D18*
%TO.C,R5*%
X124500000Y-95912500D03*
X124500000Y-94087500D03*
%TD*%
D19*
%TO.C,R6*%
X159500000Y-77337500D03*
X159500000Y-79162500D03*
%TD*%
D20*
%TO.C,D1*%
X108850000Y-160500000D03*
X112150000Y-160500000D03*
%TD*%
D15*
%TO.C,Q1*%
X112625000Y-157755000D03*
D16*
X104650000Y-153950000D03*
X104650000Y-157000000D03*
X108000000Y-153950000D03*
X108000000Y-157000000D03*
D15*
X112625000Y-153195000D03*
%TD*%
D19*
%TO.C,R10*%
X128000000Y-63587500D03*
X128000000Y-65412500D03*
%TD*%
D15*
%TO.C,Q2*%
X125300000Y-50740000D03*
D16*
X120675000Y-54545000D03*
X120675000Y-51495000D03*
X117325000Y-54545000D03*
X117325000Y-51495000D03*
D15*
X125300000Y-55300000D03*
%TD*%
D19*
%TO.C,R9*%
X128800000Y-51887500D03*
X128800000Y-53712500D03*
%TD*%
D10*
%TO.C,D3*%
X112400000Y-58150000D03*
X112400000Y-54850000D03*
%TD*%
D11*
%TO.C,U3*%
X117940000Y-90500000D03*
X119210000Y-90500000D03*
X120480000Y-90500000D03*
X121750000Y-90500000D03*
X121750000Y-95495000D03*
X120480000Y-95495000D03*
X119210000Y-95495000D03*
X117940000Y-95495000D03*
D12*
X119845000Y-92997500D03*
%TD*%
D18*
%TO.C,R7*%
X149750000Y-84325000D03*
X149750000Y-82500000D03*
%TD*%
D19*
%TO.C,R4*%
X124500000Y-89500000D03*
X124500000Y-91325000D03*
%TD*%
M02*
