<?xml version="1.0" standalone="no"?>
<!DOCTYPE svg PUBLIC "-//W3C//DTD SVG 20010904//EN"
 "http://www.w3.org/TR/2001/REC-SVG-20010904/DTD/svg10.dtd">
<svg version="1.0" xmlns="http://www.w3.org/2000/svg"
 width="406.000000pt" height="203.000000pt" viewBox="0 0 406.000000 203.000000"
 preserveAspectRatio="xMidYMid meet">

<g transform="translate(0.000000,203.000000) scale(0.100000,-0.100000)"
fill="#000000" stroke="none">
<path d="M30 1010 l0 -1000 2015 0 2015 0 0 1000 0 1000 -2015 0 -2015 0 0
-1000z m610 830 l0 -160 -300 0 -300 0 0 160 0 160 300 0 300 0 0 -160z m620
0 l0 -160 -305 0 -305 0 0 153 c0 85 3 157 7 160 3 4 141 7 305 7 l298 0 0
-160z m610 0 l0 -160 -300 0 -300 0 0 160 0 160 300 0 300 0 0 -160z m2170 0
l0 -160 -1080 0 -1080 0 0 160 0 160 1080 0 1080 0 0 -160z m-3400 -330 l0
-160 -300 0 -300 0 0 160 0 160 300 0 300 0 0 -160z m620 0 l0 -160 -305 0
-305 0 0 153 c0 85 3 157 7 160 3 4 141 7 305 7 l298 0 0 -160z m610 0 l0
-160 -300 0 -300 0 0 160 0 160 300 0 300 0 0 -160z m2170 0 l0 -160 -1080 0
-1080 0 0 160 0 160 1080 0 1080 0 0 -160z m-3400 -330 l0 -160 -300 0 -300 0
0 160 0 160 300 0 300 0 0 -160z m618 -2 l3 -158 -306 0 -305 0 0 153 c0 85 3
157 7 160 4 4 140 6 302 5 l296 -3 3 -157z m612 2 l0 -160 -300 0 -300 0 0
160 0 160 300 0 300 0 0 -160z m2170 0 l0 -160 -1080 0 -1080 0 0 160 0 160
1080 0 1080 0 0 -160z m-3400 -330 l0 -160 -300 0 -300 0 0 160 0 160 300 0
300 0 0 -160z m618 -2 l3 -158 -306 0 -305 0 0 153 c0 85 3 157 7 160 4 4 140
6 302 5 l296 -3 3 -157z m612 2 l0 -160 -300 0 -300 0 0 160 0 160 300 0 300
0 0 -160z m2170 0 l0 -160 -1080 0 -1080 0 0 153 c0 85 3 157 7 160 3 4 489 7
1080 7 l1073 0 0 -160z m-3400 -330 l0 -160 -300 0 -300 0 0 160 0 160 300 0
300 0 0 -160z m618 -2 l3 -158 -306 0 -305 0 0 153 c0 85 3 157 7 160 4 4 140
6 302 5 l296 -3 3 -157z m612 2 l0 -160 -300 0 -300 0 0 160 0 160 300 0 300
0 0 -160z m2170 0 l0 -160 -1080 0 -1080 0 0 153 c0 85 3 157 7 160 3 4 489 7
1080 7 l1073 0 0 -160z m-3400 -335 l0 -155 -300 0 -300 0 0 155 0 155 300 0
300 0 0 -155z m620 0 l0 -155 -305 0 -305 0 0 155 0 155 305 0 305 0 0 -155z
m610 0 l0 -155 -300 0 -300 0 0 155 0 155 300 0 300 0 0 -155z m2170 0 l0
-155 -1080 0 -1080 0 0 155 0 155 1080 0 1080 0 0 -155z"/>
<path d="M160 1840 c0 -76 17 -97 22 -27 l3 42 13 -42 c16 -53 37 -55 50 -5
l10 37 1 -37 c1 -27 6 -38 16 -38 12 0 15 15 15 71 0 67 -1 70 -22 67 -15 -2
-25 -14 -33 -43 l-12 -40 -12 43 c-9 31 -17 42 -31 42 -18 0 -20 -7 -20 -70z"/>
<path d="M320 1895 c-19 -22 -2 -53 35 -65 19 -6 35 -16 35 -21 0 -19 -31 -21
-50 -4 -23 21 -39 12 -24 -13 7 -11 24 -17 49 -17 70 0 75 59 6 79 -17 5 -31
12 -31 16 0 12 29 20 35 10 9 -15 35 -12 35 4 0 27 -69 36 -90 11z"/>
<path d="M463 1885 c-28 -27 -29 -38 -3 -30 18 6 20 2 20 -39 0 -34 4 -46 15
-46 12 0 15 14 15 70 0 77 -8 85 -47 45z"/>
<path d="M770 1841 c0 -56 3 -71 15 -71 10 0 15 11 16 38 l1 37 10 -37 c13
-50 34 -48 50 5 l13 42 3 -42 c5 -70 22 -49 22 27 0 63 -2 70 -20 70 -14 0
-22 -11 -31 -42 l-12 -43 -12 40 c-8 29 -18 41 -33 43 -21 3 -22 0 -22 -67z"/>
<path d="M942 1898 c-25 -25 -7 -68 29 -68 9 0 22 -7 29 -15 19 -23 -16 -32
-41 -9 -13 12 -23 14 -30 7 -17 -17 18 -43 56 -43 65 0 69 71 5 85 -43 9 -38
29 5 21 19 -4 35 -3 35 2 0 16 -24 32 -50 32 -14 0 -31 -5 -38 -12z"/>
<path d="M1065 1894 c-12 -13 -14 -19 -4 -28 8 -8 13 -8 16 2 6 15 33 16 33 1
0 -6 -13 -27 -30 -46 -16 -18 -30 -38 -30 -43 0 -6 20 -10 45 -10 33 0 45 4
45 15 0 9 -9 15 -22 15 l-21 0 21 23 c12 13 22 32 22 43 0 42 -45 58 -75 28z"/>
<path d="M1380 1840 c0 -56 3 -70 15 -70 11 0 15 12 16 43 l1 42 11 -42 c7
-30 15 -43 27 -43 12 0 20 13 27 43 l11 42 1 -42 c1 -31 5 -43 16 -43 12 0 15
14 15 70 0 67 -1 70 -24 70 -19 0 -25 -7 -30 -35 -4 -19 -11 -35 -16 -35 -5 0
-12 16 -16 35 -5 28 -11 35 -30 35 -23 0 -24 -3 -24 -70z"/>
<path d="M1550 1895 c-19 -22 -2 -53 35 -65 19 -6 35 -16 35 -21 0 -19 -31
-21 -50 -4 -23 21 -39 12 -24 -13 7 -11 24 -17 49 -17 70 0 75 59 6 79 -17 5
-31 12 -31 16 0 12 29 20 35 10 9 -15 35 -12 35 4 0 27 -69 36 -90 11z"/>
<path d="M1682 1898 c-19 -19 -14 -29 13 -22 27 7 33 -4 13 -24 -9 -9 -8 -15
8 -26 15 -12 16 -17 7 -27 -10 -10 -15 -9 -28 1 -18 15 -30 7 -22 -15 4 -9 19
-15 36 -15 37 0 57 30 41 59 -5 11 -7 27 -4 35 13 34 -37 61 -64 34z"/>
<path d="M2000 1840 c0 -56 3 -70 15 -70 11 0 15 12 16 43 l1 42 11 -42 c7
-30 15 -43 27 -43 12 0 20 13 27 43 l11 42 1 -42 c1 -31 5 -43 16 -43 12 0 15
14 15 70 0 67 -1 70 -24 70 -19 0 -25 -7 -30 -35 -4 -19 -11 -35 -16 -35 -5 0
-12 16 -16 35 -5 28 -11 35 -30 35 -23 0 -24 -3 -24 -70z"/>
<path d="M2160 1895 c0 -8 7 -15 15 -15 8 0 15 7 15 15 0 8 -7 15 -15 15 -8 0
-15 -7 -15 -15z"/>
<path d="M2960 1840 c0 -54 3 -70 14 -70 9 0 16 12 18 33 l3 32 30 -32 c16
-18 35 -33 42 -33 17 0 16 6 -4 37 -13 19 -14 28 -5 31 15 5 16 44 0 60 -7 7
-31 12 -55 12 l-43 0 0 -70z m80 25 c0 -9 -9 -15 -25 -15 -16 0 -25 6 -25 15
0 9 9 15 25 15 16 0 25 -6 25 -15z"/>
<path d="M3430 1840 c0 -40 4 -70 10 -70 6 0 10 30 10 70 0 40 -4 70 -10 70
-6 0 -10 -30 -10 -70z"/>
<path d="M3660 1895 c0 -8 7 -15 15 -15 8 0 15 7 15 15 0 8 -7 15 -15 15 -8 0
-15 -7 -15 -15z"/>
<path d="M2622 1883 c-5 -10 -7 -38 -3 -63 5 -37 10 -46 29 -48 12 -2 22 1 22
7 0 6 -4 11 -10 11 -15 0 -12 57 3 64 10 5 10 7 0 12 -7 3 -13 12 -13 20 0 20
-17 18 -28 -3z"/>
<path d="M3602 1883 c-5 -10 -7 -39 -4 -65 4 -43 6 -48 29 -48 21 0 23 2 13
15 -6 8 -11 29 -9 47 3 49 0 68 -11 68 -5 0 -13 -8 -18 -17z"/>
<path d="M2160 1820 c0 -38 4 -50 15 -50 11 0 15 12 15 50 0 38 -4 50 -15 50
-11 0 -15 -12 -15 -50z"/>
<path d="M2222 1858 c-17 -17 -15 -63 2 -77 21 -18 70 -10 74 12 2 10 -3 17
-12 17 -9 0 -16 -4 -16 -10 0 -5 -7 -10 -15 -10 -10 0 -15 10 -15 31 0 29 1
30 32 23 29 -6 31 -5 19 10 -16 19 -52 21 -69 4z"/>
<path d="M2320 1820 c0 -38 4 -50 15 -50 11 0 15 11 15 35 0 22 6 38 15 41 25
10 17 24 -15 24 -29 0 -30 -1 -30 -50z"/>
<path d="M2398 1845 c-17 -37 3 -75 40 -75 35 0 52 16 52 50 0 34 -17 50 -52
50 -21 0 -32 -7 -40 -25z m61 -9 c14 -17 4 -46 -15 -46 -18 0 -28 24 -20 45 7
19 20 19 35 1z"/>
<path d="M2517 1864 c-17 -17 -5 -43 23 -53 39 -13 39 -24 -1 -16 -24 5 -30 4
-27 -6 6 -20 62 -23 77 -5 16 19 8 33 -32 51 l-32 15 33 -5 c24 -3 32 -1 30 8
-5 13 -60 22 -71 11z"/>
<path d="M2692 1858 c-7 -7 -12 -24 -12 -38 0 -14 5 -31 12 -38 17 -17 53 -15
69 4 12 15 10 16 -19 10 -21 -5 -32 -4 -32 3 0 6 14 11 30 11 22 0 30 5 30 18
0 24 -19 42 -45 42 -12 0 -26 -5 -33 -12z m48 -18 c0 -5 -7 -10 -15 -10 -8 0
-15 5 -15 10 0 6 7 10 15 10 8 0 15 -4 15 -10z"/>
<path d="M2790 1800 c0 -56 3 -70 15 -70 8 0 15 9 15 20 0 15 7 20 25 20 34 0
53 39 37 75 -10 21 -19 25 -52 25 l-40 0 0 -70z m65 20 c0 -27 -22 -39 -31
-16 -8 22 3 49 19 43 6 -2 12 -14 12 -27z"/>
<path d="M3102 1858 c-17 -17 -15 -63 2 -77 19 -16 68 -10 74 8 3 10 -3 11
-27 6 -20 -4 -31 -3 -31 4 0 6 14 11 30 11 22 0 30 5 30 18 0 24 -19 42 -45
42 -12 0 -26 -5 -33 -12z m48 -18 c0 -5 -7 -10 -15 -10 -8 0 -15 5 -15 10 0 6
7 10 15 10 8 0 15 -4 15 -10z"/>
<path d="M3207 1864 c-17 -17 -5 -43 23 -53 39 -13 39 -24 -1 -16 -24 5 -30 4
-27 -6 6 -20 62 -23 77 -5 16 19 8 33 -32 51 l-32 15 33 -5 c24 -3 32 -1 30 8
-5 13 -60 22 -71 11z"/>
<path d="M3315 1846 c-16 -23 -11 -54 9 -68 32 -22 86 4 86 42 0 48 -68 67
-95 26z m60 -26 c0 -15 -6 -26 -16 -28 -19 -3 -31 21 -22 43 9 25 38 13 38
-15z"/>
<path d="M3482 1823 l3 -48 43 -3 42 -3 0 50 c0 39 -4 51 -15 51 -11 0 -15
-11 -15 -40 0 -29 -4 -40 -15 -40 -11 0 -15 11 -15 40 0 30 -4 40 -16 40 -12
0 -14 -10 -12 -47z"/>
<path d="M3660 1820 c0 -38 4 -50 15 -50 11 0 15 12 15 50 0 38 -4 50 -15 50
-11 0 -15 -12 -15 -50z"/>
<path d="M3722 1858 c-7 -7 -12 -24 -12 -38 0 -33 17 -50 50 -50 33 0 50 17
50 50 0 33 -17 50 -50 50 -14 0 -31 -5 -38 -12z m53 -38 c0 -27 -22 -39 -31
-16 -8 22 3 49 19 43 6 -2 12 -14 12 -27z"/>
<path d="M3830 1821 c0 -38 4 -51 14 -51 10 0 16 13 18 37 4 52 28 56 28 4 0
-30 4 -41 16 -41 12 0 14 10 12 48 l-3 47 -42 3 -43 3 0 -50z"/>
<path d="M300 1510 l0 -70 45 0 c25 0 45 5 45 10 0 6 -16 10 -35 10 l-35 0 0
60 c0 33 -4 60 -10 60 -6 0 -10 -30 -10 -70z"/>
<path d="M920 1510 l0 -70 40 0 c22 0 40 5 40 10 0 6 -13 10 -30 10 l-30 0 0
60 c0 33 -4 60 -10 60 -6 0 -10 -30 -10 -70z"/>
<path d="M1530 1510 l0 -70 45 0 c25 0 45 5 45 10 0 6 -16 10 -35 10 l-35 0 0
60 c0 33 -4 60 -10 60 -6 0 -10 -30 -10 -70z"/>
<path d="M1989 1568 c-6 -80 -3 -128 9 -128 7 0 12 13 12 30 0 27 3 30 30 30
17 0 30 5 30 10 0 6 -13 10 -30 10 -23 0 -30 4 -30 20 0 16 7 20 35 20 19 0
35 5 35 10 0 15 -90 13 -91 -2z"/>
<path d="M2207 1573 c-11 -10 -8 -133 3 -133 6 0 10 30 10 70 0 70 -1 76 -13
63z"/>
<path d="M2250 1510 c0 -40 4 -70 10 -70 6 0 10 30 10 70 0 40 -4 70 -10 70
-6 0 -10 -30 -10 -70z"/>
<path d="M2360 1565 c-20 -24 -7 -49 30 -61 46 -15 53 -44 10 -44 -18 0 -33 6
-36 15 -4 8 -10 12 -15 9 -20 -12 12 -44 44 -44 68 0 79 53 17 77 -22 9 -40
22 -40 30 0 16 42 17 58 1 6 -6 14 -9 17 -6 11 10 -26 38 -49 38 -13 0 -29 -7
-36 -15z"/>
<path d="M2473 1551 c-8 -13 -9 -22 -3 -26 6 -3 10 -24 10 -46 0 -28 4 -39 15
-39 8 0 15 5 15 10 0 6 -4 10 -10 10 -14 0 -12 54 2 68 8 8 9 12 1 12 -6 0
-13 7 -15 15 -2 13 -5 12 -15 -4z"/>
<path d="M2102 1493 c3 -48 3 -48 41 -51 l37 -3 0 50 c0 28 -4 51 -10 51 -5 0
-10 -18 -10 -39 0 -24 -5 -41 -14 -44 -20 -8 -26 2 -26 45 0 21 -5 38 -11 38
-6 0 -9 -19 -7 -47z"/>
<path d="M2532 1528 c-7 -7 -12 -24 -12 -38 0 -14 5 -31 12 -38 15 -15 64 -16
73 -1 11 17 -3 23 -20 9 -13 -11 -19 -11 -33 3 -15 16 -14 17 21 17 29 0 37 4
37 18 0 24 -19 42 -45 42 -12 0 -26 -5 -33 -12z m56 -16 c2 -7 -7 -12 -23 -12
-24 0 -26 2 -15 15 14 17 31 16 38 -3z"/>
<path d="M2630 1470 c0 -40 4 -70 10 -70 6 0 10 9 10 20 0 14 7 20 23 20 30 0
47 18 47 50 0 35 -17 50 -57 50 l-33 0 0 -70z m70 20 c0 -29 -14 -41 -37 -32
-16 5 -17 44 -2 59 18 18 39 3 39 -27z"/>
<path d="M288 1244 c-12 -11 -10 -134 2 -134 6 0 10 14 10 30 0 28 3 30 35 30
32 0 35 -2 35 -30 0 -16 5 -30 10 -30 6 0 10 30 10 71 0 44 -4 68 -10 64 -5
-3 -10 -17 -10 -31 0 -22 -4 -25 -32 -22 -27 2 -34 8 -38 31 -3 16 -8 25 -12
21z"/>
<path d="M920 1180 l0 -70 40 0 c22 0 40 5 40 10 0 6 -13 10 -30 10 l-30 0 0
60 c0 33 -4 60 -10 60 -6 0 -10 -30 -10 -70z"/>
<path d="M1530 1180 l0 -70 45 0 c25 0 45 5 45 10 0 6 -16 10 -35 10 l-35 0 0
60 c0 33 -4 60 -10 60 -6 0 -10 -30 -10 -70z"/>
<path d="M1988 1244 c-12 -11 -10 -134 2 -134 6 0 10 14 10 30 0 28 3 30 35
30 32 0 35 -2 35 -30 0 -16 5 -30 10 -30 6 0 10 30 10 71 0 44 -4 68 -10 64
-5 -3 -10 -17 -10 -31 0 -22 -4 -25 -32 -22 -27 2 -34 8 -38 31 -3 16 -8 25
-12 21z"/>
<path d="M2227 1243 c-11 -10 -8 -133 3 -133 6 0 10 30 10 70 0 70 -1 76 -13
63z"/>
<path d="M2272 1231 c-9 -26 -2 -121 9 -121 5 0 9 18 9 39 0 22 5 43 11 47 8
4 7 9 -2 15 -11 7 -10 11 6 23 20 15 20 15 -3 16 -13 0 -26 -8 -30 -19z"/>
<path d="M2390 1235 c-20 -24 -7 -49 30 -61 46 -15 53 -44 10 -44 -18 0 -33 6
-36 15 -4 8 -10 12 -15 9 -20 -12 12 -44 44 -44 68 0 79 53 17 77 -22 9 -40
22 -40 30 0 16 42 17 58 1 6 -6 14 -9 17 -6 11 10 -26 38 -49 38 -13 0 -29 -7
-36 -15z"/>
<path d="M2506 1225 c-5 -11 -8 -24 -6 -30 3 -9 7 -44 9 -72 1 -15 31 -18 31
-3 0 6 -4 10 -10 10 -14 0 -12 54 2 68 8 8 9 12 1 12 -6 0 -13 8 -15 18 -3 15
-5 15 -12 -3z"/>
<path d="M2125 1199 c-11 -16 3 -23 19 -10 8 7 20 10 26 6 18 -11 11 -22 -21
-29 -25 -5 -30 -10 -27 -28 2 -19 10 -23 45 -24 l41 -2 -5 37 c-2 20 -6 42 -9
49 -4 15 -60 16 -69 1z m52 -64 c-4 -8 -13 -15 -22 -15 -21 0 -19 28 3 32 22
5 26 2 19 -17z"/>
<path d="M2562 1198 c-7 -7 -12 -24 -12 -38 0 -14 5 -31 12 -38 15 -15 64 -16
73 -1 11 17 -3 23 -20 9 -13 -11 -19 -11 -33 3 -15 16 -14 17 21 17 29 0 37 4
37 18 0 24 -19 42 -45 42 -12 0 -26 -5 -33 -12z m56 -16 c2 -7 -7 -12 -23 -12
-24 0 -26 2 -15 15 14 17 31 16 38 -3z"/>
<path d="M2660 1140 c0 -40 4 -70 10 -70 6 0 10 9 10 20 0 14 7 20 23 20 30 0
47 18 47 50 0 35 -17 50 -57 50 l-33 0 0 -70z m70 20 c0 -29 -14 -41 -37 -32
-16 5 -17 44 -2 59 18 18 39 3 39 -27z"/>
<path d="M300 850 l0 -70 45 0 c25 0 45 5 45 10 0 6 -16 10 -35 10 l-35 0 0
60 c0 33 -4 60 -10 60 -6 0 -10 -30 -10 -70z"/>
<path d="M900 850 c0 -40 4 -70 10 -70 6 0 10 14 10 30 0 28 3 30 35 30 32 0
35 -2 35 -30 0 -16 5 -30 10 -30 6 0 10 30 10 70 0 40 -4 70 -10 70 -5 0 -10
-13 -10 -30 0 -28 -3 -30 -35 -30 -32 0 -35 2 -35 30 0 17 -4 30 -10 30 -6 0
-10 -30 -10 -70z"/>
<path d="M1530 850 l0 -70 45 0 c25 0 45 5 45 10 0 6 -16 10 -35 10 l-35 0 0
60 c0 33 -4 60 -10 60 -6 0 -10 -30 -10 -70z"/>
<path d="M2000 900 c-25 -25 -27 -81 -2 -102 19 -17 112 -31 112 -17 0 5 -5 9
-10 9 -7 0 -7 6 0 19 26 50 -4 111 -55 111 -14 0 -34 -9 -45 -20z m79 -14 c18
-22 10 -71 -11 -70 -10 1 -18 -4 -18 -12 0 -15 -30 -8 -42 10 -12 17 -9 61 4
74 16 16 53 15 67 -2z"/>
<path d="M2700 905 c-20 -24 -7 -49 30 -61 46 -15 53 -44 10 -44 -18 0 -33 6
-36 15 -4 8 -10 12 -15 9 -20 -12 12 -44 44 -44 68 0 79 53 17 77 -22 9 -40
22 -40 30 0 16 42 17 58 1 6 -6 14 -9 17 -6 11 10 -26 38 -49 38 -13 0 -29 -7
-36 -15z"/>
<path d="M2410 895 c0 -13 -25 -21 -52 -16 -5 0 -7 -23 -7 -51 1 -29 3 -44 6
-33 2 11 6 30 8 41 3 12 14 24 24 27 17 4 20 -1 23 -36 2 -33 7 -43 23 -45 16
-3 18 -1 8 9 -16 17 -17 61 -1 77 9 9 9 12 0 12 -7 0 -12 7 -12 15 0 8 -4 15
-10 15 -5 0 -10 -7 -10 -15z"/>
<path d="M2820 905 c-1 -5 -2 -13 -1 -17 0 -5 -4 -8 -10 -8 -5 0 -7 -5 -3 -11
6 -11 10 -29 13 -71 1 -19 31 -26 31 -8 0 6 -4 10 -10 10 -14 0 -12 54 2 68 8
8 9 12 1 12 -6 0 -14 8 -16 18 -3 9 -6 13 -7 7z"/>
<path d="M2132 833 c3 -48 3 -48 41 -49 l37 -1 -1 51 c-1 51 -1 51 -9 13 -13
-71 -50 -76 -50 -6 0 21 -5 39 -11 39 -6 0 -9 -19 -7 -47z"/>
<path d="M2245 870 c-11 -17 3 -24 19 -11 8 7 20 10 26 6 16 -10 12 -25 -8
-25 -29 0 -54 -23 -46 -43 4 -12 17 -17 46 -17 l39 0 -3 48 c-3 45 -5 47 -35
50 -17 2 -34 -2 -38 -8z m55 -55 c0 -20 -28 -31 -42 -17 -10 10 8 23 40 31 1
1 2 -6 2 -14z"/>
<path d="M2472 868 c-7 -7 -12 -24 -12 -38 0 -14 5 -31 12 -38 17 -17 53 -15
69 5 12 15 12 16 -6 9 -31 -13 -47 -12 -52 2 -3 8 7 12 31 12 28 0 36 4 36 18
0 24 -19 42 -45 42 -12 0 -26 -5 -33 -12z m58 -19 c0 -5 -11 -9 -25 -9 -26 0
-34 15 -12 23 16 5 37 -3 37 -14z"/>
<path d="M2570 830 c0 -27 5 -50 10 -50 6 0 10 18 10 40 0 29 4 40 15 40 8 0
15 5 15 10 0 6 -11 10 -25 10 -23 0 -25 -3 -25 -50z"/>
<path d="M2872 868 c-7 -7 -12 -24 -12 -38 0 -14 5 -31 12 -38 15 -15 64 -16
73 -1 11 17 -3 23 -20 9 -13 -11 -19 -11 -33 3 -15 16 -14 17 21 17 29 0 37 4
37 18 0 24 -19 42 -45 42 -12 0 -26 -5 -33 -12z m56 -16 c2 -7 -7 -12 -23 -12
-24 0 -26 2 -15 15 14 17 31 16 38 -3z"/>
<path d="M2970 810 c0 -40 4 -70 10 -70 6 0 10 9 10 20 0 14 7 20 23 20 30 0
47 18 47 50 0 35 -17 50 -57 50 l-33 0 0 -70z m70 20 c0 -29 -14 -41 -37 -32
-16 5 -17 44 -2 59 18 18 39 3 39 -27z"/>
<path d="M288 584 c-12 -11 -10 -134 2 -134 6 0 10 14 10 30 0 28 3 30 35 30
32 0 35 -2 35 -30 0 -16 5 -30 10 -30 6 0 10 30 10 71 0 44 -4 68 -10 64 -5
-3 -10 -17 -10 -31 0 -22 -4 -25 -32 -22 -27 2 -34 8 -38 31 -3 16 -8 25 -12
21z"/>
<path d="M900 520 c0 -40 4 -70 10 -70 6 0 10 14 10 30 0 28 3 30 35 30 32 0
35 -2 35 -30 0 -16 5 -30 10 -30 6 0 10 30 10 70 0 40 -4 70 -10 70 -5 0 -10
-13 -10 -30 0 -28 -3 -30 -35 -30 -32 0 -35 2 -35 30 0 17 -4 30 -10 30 -6 0
-10 -30 -10 -70z"/>
<path d="M1530 520 l0 -70 45 0 c25 0 45 5 45 10 0 6 -16 10 -35 10 l-35 0 0
60 c0 33 -4 60 -10 60 -6 0 -10 -30 -10 -70z"/>
<path d="M1987 583 c-4 -3 -7 -35 -7 -70 l0 -63 55 0 c30 0 55 5 55 10 0 6
-20 10 -45 10 -38 0 -45 3 -45 20 0 17 7 20 40 20 22 0 40 5 40 10 0 6 -18 10
-40 10 -33 0 -40 3 -40 20 0 17 7 20 46 20 27 0 43 4 39 10 -7 11 -88 14 -98
3z"/>
<path d="M2110 580 c0 -5 5 -10 10 -10 6 0 10 5 10 10 0 6 -4 10 -10 10 -5 0
-10 -4 -10 -10z"/>
<path d="M2260 520 c0 -40 4 -70 10 -70 6 0 10 18 10 39 0 24 5 41 14 44 20 8
26 -2 26 -45 0 -21 5 -38 11 -38 6 0 9 19 7 48 -3 43 -5 47 -30 50 -20 2 -28
9 -28 23 0 10 -4 19 -10 19 -6 0 -10 -30 -10 -70z"/>
<path d="M2420 520 c0 -40 4 -70 10 -70 6 0 10 18 10 39 0 24 5 41 14 44 20 8
26 -2 26 -45 0 -21 5 -38 11 -38 6 0 9 19 7 48 -3 43 -5 47 -30 50 -20 2 -28
9 -28 23 0 10 -4 19 -10 19 -6 0 -10 -30 -10 -70z"/>
<path d="M2590 575 c-18 -22 -8 -47 25 -58 38 -12 56 -27 49 -38 -9 -16 -56
-10 -70 9 -11 14 -13 15 -14 1 0 -24 21 -39 57 -39 65 0 60 70 -7 83 -16 4
-30 11 -30 17 0 18 31 24 52 11 25 -15 35 -7 18 14 -16 19 -64 20 -80 0z"/>
<path d="M2368 563 c-2 -10 -2 -39 0 -65 3 -40 7 -48 24 -48 17 0 18 3 8 15
-6 8 -11 29 -9 47 3 48 0 68 -10 68 -5 0 -11 -8 -13 -17z"/>
<path d="M2708 563 c-2 -10 -2 -39 0 -65 3 -40 7 -48 24 -48 17 0 18 3 8 15
-6 8 -11 29 -9 47 3 48 0 68 -10 68 -5 0 -11 -8 -13 -17z"/>
<path d="M2110 500 c0 -27 5 -50 10 -50 6 0 10 23 10 50 0 28 -4 50 -10 50 -5
0 -10 -22 -10 -50z"/>
<path d="M2162 538 c-17 -17 -15 -63 3 -78 8 -7 24 -10 36 -7 13 3 19 1 16 -6
-2 -7 -19 -11 -36 -10 -20 0 -31 -3 -28 -10 2 -7 19 -12 38 -12 l34 0 3 65 3
66 -29 2 c-15 1 -33 -3 -40 -10z m56 -42 c-4 -29 -44 -34 -51 -6 -7 28 20 55
40 39 7 -7 13 -22 11 -33z"/>
<path d="M2758 525 c-17 -38 3 -75 41 -75 16 0 33 5 36 11 11 17 -3 23 -20 9
-13 -11 -19 -11 -33 3 -15 16 -14 17 20 17 43 0 49 6 37 38 -12 33 -65 31 -81
-3z m62 0 c11 -13 8 -15 -20 -15 -28 0 -31 2 -20 15 7 8 16 15 20 15 4 0 13
-7 20 -15z"/>
<path d="M2871 475 c1 -38 4 -60 6 -47 3 15 12 22 27 22 29 0 46 18 46 51 0
33 -19 50 -54 47 -26 -2 -26 -3 -25 -73z m57 31 c4 -36 -12 -54 -33 -36 -18
15 -20 41 -3 58 18 18 33 9 36 -22z"/>
<path d="M288 254 c-12 -11 -10 -134 2 -134 6 0 10 14 10 30 0 28 3 30 35 30
32 0 35 -2 35 -30 0 -16 5 -30 10 -30 6 0 10 30 10 71 0 44 -4 68 -10 64 -5
-3 -10 -17 -10 -31 0 -22 -4 -25 -32 -22 -27 2 -34 8 -38 31 -3 16 -8 25 -12
21z"/>
<path d="M900 190 c0 -40 4 -70 10 -70 6 0 10 14 10 30 0 28 3 30 35 30 32 0
35 -2 35 -30 0 -16 5 -30 10 -30 6 0 10 30 10 70 0 40 -4 70 -10 70 -5 0 -10
-13 -10 -30 0 -28 -3 -30 -35 -30 -32 0 -35 2 -35 30 0 17 -4 30 -10 30 -6 0
-10 -30 -10 -70z"/>
<path d="M1518 254 c-12 -11 -10 -134 2 -134 6 0 10 14 10 30 0 28 3 30 35 30
32 0 35 -2 35 -30 0 -16 5 -30 10 -30 6 0 10 30 10 71 0 44 -4 68 -10 64 -5
-3 -10 -17 -10 -31 0 -22 -4 -25 -32 -22 -27 2 -34 8 -38 31 -3 16 -8 25 -12
21z"/>
<path d="M1995 244 c-23 -23 -15 -36 33 -59 23 -11 41 -24 39 -30 -6 -18 -48
-17 -68 1 -15 14 -19 14 -19 3 0 -24 22 -39 56 -39 59 0 74 57 19 75 -41 14
-56 25 -50 36 9 13 53 11 58 -3 2 -7 8 -10 12 -6 13 12 -15 38 -41 38 -12 0
-30 -7 -39 -16z"/>
<path d="M2110 250 c0 -5 5 -10 10 -10 6 0 10 5 10 10 0 6 -4 10 -10 10 -5 0
-10 -4 -10 -10z"/>
<path d="M2670 190 c0 -40 4 -70 10 -70 6 0 10 15 10 34 0 39 21 64 38 44 6
-7 12 -29 15 -48 3 -23 4 -18 3 15 -1 48 -2 50 -28 50 -23 -1 -28 4 -28 22 0
13 -4 23 -10 23 -6 0 -10 -30 -10 -70z"/>
<path d="M2845 244 c-23 -23 -15 -36 33 -59 23 -11 41 -24 39 -30 -6 -18 -48
-17 -68 1 -15 14 -19 14 -19 3 0 -24 22 -39 56 -39 59 0 74 57 19 75 -41 14
-56 25 -50 36 9 13 53 11 58 -3 2 -7 8 -10 12 -6 13 12 -15 38 -41 38 -12 0
-30 -7 -39 -16z"/>
<path d="M2248 233 c-2 -10 -1 -38 2 -63 4 -35 9 -46 25 -48 16 -3 18 -1 8 9
-16 17 -17 61 -1 77 9 9 9 12 0 12 -7 0 -12 7 -12 15 0 21 -17 19 -22 -2z"/>
<path d="M2622 234 c-6 -12 -8 -24 -4 -28 3 -4 7 -19 8 -34 1 -15 2 -33 3 -39
1 -15 31 -18 31 -3 0 6 -4 10 -10 10 -14 0 -12 54 2 68 8 8 9 12 1 12 -6 0
-13 8 -15 18 -3 15 -5 15 -16 -4z"/>
<path d="M2971 238 c0 -10 -6 -18 -12 -18 -6 0 -7 -5 -2 -12 4 -7 8 -22 9 -33
3 -49 5 -55 19 -55 8 0 15 5 15 10 0 6 -4 10 -10 10 -14 0 -12 54 2 68 8 8 9
12 1 12 -6 0 -14 8 -16 18 -4 16 -5 16 -6 0z"/>
<path d="M2110 170 c0 -27 5 -50 10 -50 6 0 10 23 10 50 0 28 -4 50 -10 50 -5
0 -10 -22 -10 -50z"/>
<path d="M2150 211 c0 -6 5 -13 10 -16 15 -9 12 -36 -7 -57 -11 -13 -12 -18
-3 -18 7 0 19 8 26 18 12 16 14 16 28 -3 8 -11 18 -17 22 -13 4 5 -1 17 -10
27 -17 18 -17 21 -1 45 19 28 6 36 -16 10 -11 -14 -13 -14 -21 0 -10 17 -28
22 -28 7z"/>
<path d="M2312 208 c-7 -7 -12 -24 -12 -38 0 -14 5 -31 12 -38 17 -17 53 -15
69 5 12 15 12 16 -6 9 -31 -13 -47 -12 -52 2 -3 8 7 12 31 12 28 0 36 4 36 18
0 24 -19 42 -45 42 -12 0 -26 -5 -33 -12z m58 -19 c0 -5 -11 -9 -25 -9 -26 0
-34 15 -12 23 16 5 37 -3 37 -14z"/>
<path d="M2408 195 c-17 -38 3 -75 41 -75 16 0 33 5 36 11 11 17 -3 23 -20 9
-13 -11 -19 -11 -33 3 -15 16 -14 17 20 17 43 0 49 6 37 38 -12 33 -65 31 -81
-3z m62 0 c11 -13 8 -15 -20 -15 -28 0 -31 2 -20 15 7 8 16 15 20 15 4 0 13
-7 20 -15z"/>
<path d="M2521 165 l2 -50 6 40 c5 32 11 41 29 43 20 3 22 -1 22 -37 0 -23 5
-41 10 -41 12 0 13 70 2 88 -5 7 -23 11 -40 10 -32 -2 -32 -3 -31 -53z"/>
<path d="M3022 208 c-7 -7 -12 -24 -12 -38 0 -14 5 -31 12 -38 15 -15 64 -16
73 -1 11 17 -3 23 -20 9 -13 -11 -19 -11 -33 3 -15 16 -14 17 21 17 29 0 37 4
37 18 0 24 -19 42 -45 42 -12 0 -26 -5 -33 -12z m56 -16 c2 -7 -7 -12 -23 -12
-24 0 -26 2 -15 15 14 17 31 16 38 -3z"/>
<path d="M3120 150 c0 -40 4 -70 10 -70 6 0 10 9 10 20 0 14 7 20 23 20 30 0
47 18 47 50 0 35 -17 50 -57 50 l-33 0 0 -70z m70 20 c0 -29 -14 -41 -37 -32
-16 5 -17 44 -2 59 18 18 39 3 39 -27z"/>
</g>
</svg>
